<?xml version="1.0" encoding="UTF-8" standalone="no"?>
<svg
   version="1.1"
   viewBox="0 0 64 64"
   id="svg7"
   sodipodi:docname="folder-rpm.svg"
   xml:space="preserve"
   inkscape:version="1.4.3 (0d15f75042, 2025-12-25)"
   xmlns:inkscape="http://www.inkscape.org/namespaces/inkscape"
   xmlns:sodipodi="http://sodipodi.sourceforge.net/DTD/sodipodi-0.dtd"
   xmlns="http://www.w3.org/2000/svg"
   xmlns:svg="http://www.w3.org/2000/svg"><sodipodi:namedview
     id="namedview7"
     pagecolor="#505050"
     bordercolor="#eeeeee"
     borderopacity="1"
     inkscape:showpageshadow="0"
     inkscape:pageopacity="0"
     inkscape:pagecheckerboard="0"
     inkscape:deskcolor="#505050"
     inkscape:zoom="3.7056557"
     inkscape:cx="60.043354"
     inkscape:cy="44.121746"
     inkscape:window-width="1536"
     inkscape:window-height="835"
     inkscape:window-x="0"
     inkscape:window-y="0"
     inkscape:window-maximized="1"
     inkscape:current-layer="svg7" /><defs
     id="defs2"><style
       id="current-color-scheme"
       type="text/css">.ColorScheme-Text {
        color:#232629;
      }
      .ColorScheme-Highlight {
        color:#3daee9;
      }</style><linearGradient
       id="a"
       x1="445.28"
       x2="445.28"
       y1="179.28"
       y2="200.07"
       gradientTransform="matrix(1.4723,0,0,1.4432,-625.56,-239.75)"
       gradientUnits="userSpaceOnUse"><stop
         stop-opacity=".15"
         offset="0"
         id="stop1" /><stop
         stop-opacity="0"
         offset="1"
         id="stop2" /></linearGradient><style
       id="current-color-scheme-53"
       type="text/css">.ColorScheme-Text {
        color:#232629;
      }
      .ColorScheme-Highlight {
        color:#3daee9;
      }</style><style
       id="current-color-scheme-5"
       type="text/css">.ColorScheme-Text {
      color:#333333;
    }
    .ColorScheme-Highlight {
      color:#60c0f0;
    }</style><inkscape:path-effect
       effect="fillet_chamfer"
       id="path-effect10"
       is_visible="true"
       lpeversion="1"
       nodesatellites_param="F,0,0,1,0,0,0,1 @ F,0,0,1,0,2.5639,0,1 @ F,0,0,1,0,0,0,1 @ F,0,0,1,0,0,0,1"
       radius="0"
       unit="px"
       method="auto"
       mode="F"
       chamfer_steps="1"
       flexible="false"
       use_knot_distance="true"
       apply_no_radius="true"
       apply_with_radius="true"
       only_selected="false"
       hide_knots="false" /><inkscape:path-effect
       effect="fillet_chamfer"
       id="path-effect9"
       is_visible="true"
       lpeversion="1"
       nodesatellites_param="F,0,0,1,0,2.5639,0,1 @ F,0,0,1,0,0,0,1 @ F,0,0,1,0,2.5639,0,1 @ F,0,0,1,0,2.563912,0,1"
       radius="0"
       unit="px"
       method="auto"
       mode="F"
       chamfer_steps="1"
       flexible="false"
       use_knot_distance="true"
       apply_no_radius="true"
       apply_with_radius="true"
       only_selected="false"
       hide_knots="false" /><inkscape:path-effect
       effect="fillet_chamfer"
       id="path-effect7"
       is_visible="true"
       lpeversion="1"
       nodesatellites_param="F,0,0,1,0,2.5639,0,1 @ F,0,0,1,0,0,0,1 @ F,0,0,1,0,2.5639,0,1 @ F,0,0,1,0,2.563912,0,1"
       radius="0"
       unit="px"
       method="auto"
       mode="F"
       chamfer_steps="1"
       flexible="false"
       use_knot_distance="true"
       apply_no_radius="true"
       apply_with_radius="true"
       only_selected="false"
       hide_knots="false" /><style
       id="current-color-scheme-6"
       type="text/css">.ColorScheme-Text {
      color:#333333;
    }
    .ColorScheme-Highlight {
      color:#60c0f0;
    }</style><linearGradient
       id="linearGradient946"
       x1="445.28"
       x2="445.28"
       y1="181.8"
       y2="200.07"
       gradientTransform="matrix(1.4724 0 0 1.4432 -625.58 -239.75)"
       gradientUnits="userSpaceOnUse"><stop
         stop-color="#ffffff"
         stop-opacity="0"
         offset="0"
         id="stop1-7" /><stop
         stop-color="#ffffff"
         offset="1"
         id="stop2-5" /></linearGradient><filter
       style="color-interpolation-filters:sRGB;"
       inkscape:label="Drop Shadow"
       id="filter94"
       x="-0.093567251"
       y="-0.059094396"
       width="1.1871345"
       height="1.1181888"><feFlood
         result="flood"
         in="SourceGraphic"
         flood-opacity="0.196078"
         flood-color="rgb(0,0,0)"
         id="feFlood93" /><feGaussianBlur
         result="blur"
         in="SourceGraphic"
         stdDeviation="1.000000"
         id="feGaussianBlur93" /><feOffset
         result="offset"
         in="blur"
         dx="0.000000"
         dy="0.000000"
         id="feOffset93" /><feComposite
         result="comp1"
         operator="in"
         in="flood"
         in2="offset"
         id="feComposite93" /><feComposite
         result="comp2"
         operator="over"
         in="SourceGraphic"
         in2="comp1"
         id="feComposite94" /></filter><filter
       style="color-interpolation-filters:sRGB;"
       inkscape:label="Drop Shadow"
       id="filter96"
       x="-0.052710783"
       y="-0.067002503"
       width="1.1054216"
       height="1.134005"><feFlood
         result="flood"
         in="SourceGraphic"
         flood-opacity="0.196078"
         flood-color="rgb(0,0,0)"
         id="feFlood94" /><feGaussianBlur
         result="blur"
         in="SourceGraphic"
         stdDeviation="1.000000"
         id="feGaussianBlur94" /><feOffset
         result="offset"
         in="blur"
         dx="0.000000"
         dy="0.000000"
         id="feOffset94" /><feComposite
         result="comp1"
         operator="in"
         in="flood"
         in2="offset"
         id="feComposite95" /><feComposite
         result="comp2"
         operator="over"
         in="SourceGraphic"
         in2="comp1"
         id="feComposite96" /></filter></defs><g
     id="g7"
     transform="translate(-63.018741,4.0124714)"><path
       id="path11"
       style="fill:#fc8c8c;fill-opacity:1;stroke-width:7.5258;stroke-linecap:round;stroke-linejoin:round;filter:url(#filter94)"
       d="m 189.564,-14.728516 a 2.5742207,3.3529383 0 0 0 -2.57572,3.353706 v 33.905575 a 2.574233,3.3529541 0 0 0 2.57572,3.353706 h 23.07428 V -8.2960301 h -0.0254 v -1.1464995 l -5.31718,-5.2859864 z"
       transform="matrix(1.2325781,0,0,1.2325781,-163.51947,21.112234)" /><path
       id="path49"
       style="fill:#fdb4b4;fill-opacity:1;stroke-width:9.15681;stroke-linecap:round;stroke-linejoin:round;filter:url(#filter96)"
       d="m 212.18968,-9.9350854 -4.76368,4.7636706 h 25.09376 v -2.246093 a 2.5639,2.5163627 0 0 0 -2.56446,-2.5175776 z m -22.6375,4.7638676 h 42.96703 V 23.320572 a 2.5639,2.5639 0 0 1 -2.5639,2.5639 H 189.55219 A 2.563912,2.563912 0 0 1 186.98828,23.32056 V -2.6073178 a 2.5639,2.5639 0 0 1 2.5639,-2.5639 z"
       transform="matrix(1.2325781,0,0,1.2325781,-163.51947,21.112234)" /><path
       d="m 115.15923,31.346135 a 11.55163,11.55163 0 0 0 -16.816295,15.82333 l 0.009,0.01 c 0.0159,0.0168 0.0308,0.0342 0.0481,0.0505 0.0356,0.0404 0.076,0.0862 0.1237,0.13381 a 1.9815859,1.9815859 0 0 0 2.905245,-0.0202 7.5629486,7.5629486 0 0 1 11.13096,0 1.9820672,1.9820672 0 0 0 2.91919,0.003 l 0.1545,-0.16846 0.009,-0.01 a 11.548261,11.548261 0 0 0 -0.48132,-15.82381 z m -8.93808,0.46929 a 0.77011,0.77011 0 0 1 1.54022,0 v 1.54022 a 0.77011,0.77011 0 0 1 -1.54022,0 z m -5.39076,8.47119 h -1.540225 a 0.77010868,0.77010868 0 0 1 0,-1.54021 h 1.540225 a 0.77010868,0.77010868 0 0 1 0,1.54021 z m 2.34883,-4.58214 a 0.77010868,0.77010868 0 0 1 -1.08874,0 l -1.08922,-1.08874 a 0.77019838,0.77019838 0 0 1 1.08922,-1.08923 l 1.08874,1.08923 a 0.77010868,0.77010868 0 0 1 0,1.08874 z m 7.18608,1.11184 -2.28626,3.63395 a 1.4920856,1.4920856 0 0 1 -0.33692,0.33692 1.4492483,1.4492483 0 0 1 -1.68462,-2.35845 l 3.63395,-2.28626 a 0.49238824,0.49238824 0 0 1 0.56315,0 0.48420583,0.48420583 0 0 1 0.1107,0.67384 z m 1.52674,-1.11184 a 0.77010868,0.77010868 0 0 1 -1.08874,-1.08874 l 1.08874,-1.08923 a 0.77019838,0.77019838 0 0 1 1.08922,1.08923 z m 3.17092,10.95479 z m -0.37061,-6.37265 h -1.54022 a 0.77010868,0.77010868 0 0 1 0,-1.54021 h 1.54022 a 0.77010868,0.77010868 0 0 1 0,1.54021 z"
       id="path1"
       style="fill:#fa3636;fill-opacity:1;stroke-width:0.0481318" /></g></svg>
