<?xml version="1.0" encoding="UTF-8" standalone="no"?>
<svg
   version="1.1"
   viewBox="0 0 64 64"
   id="svg7"
   sodipodi:docname="folder-deb.svg"
   xml:space="preserve"
   inkscape:version="1.4.3 (0d15f75042, 2025-12-25)"
   xmlns:inkscape="http://www.inkscape.org/namespaces/inkscape"
   xmlns:sodipodi="http://sodipodi.sourceforge.net/DTD/sodipodi-0.dtd"
   xmlns="http://www.w3.org/2000/svg"
   xmlns:svg="http://www.w3.org/2000/svg"><sodipodi:namedview
     id="namedview7"
     pagecolor="#505050"
     bordercolor="#eeeeee"
     borderopacity="1"
     inkscape:showpageshadow="0"
     inkscape:pageopacity="0"
     inkscape:pagecheckerboard="0"
     inkscape:deskcolor="#505050"
     inkscape:zoom="4.5514748"
     inkscape:cx="69.5379"
     inkscape:cy="18.565411"
     inkscape:window-width="1536"
     inkscape:window-height="835"
     inkscape:window-x="0"
     inkscape:window-y="0"
     inkscape:window-maximized="1"
     inkscape:current-layer="svg7" /><defs
     id="defs2"><style
       id="current-color-scheme"
       type="text/css">.ColorScheme-Text {
        color:#232629;
      }
      .ColorScheme-Highlight {
        color:#3daee9;
      }</style><linearGradient
       id="a"
       x1="445.28"
       x2="445.28"
       y1="179.28"
       y2="200.07"
       gradientTransform="matrix(1.4723,0,0,1.4432,-625.56,-239.75)"
       gradientUnits="userSpaceOnUse"><stop
         stop-opacity=".15"
         offset="0"
         id="stop1" /><stop
         stop-opacity="0"
         offset="1"
         id="stop2" /></linearGradient><style
       id="current-color-scheme-5"
       type="text/css">.ColorScheme-Text {
      color:#333333;
    }
    .ColorScheme-Highlight {
      color:#60c0f0;
    }</style><inkscape:path-effect
       effect="fillet_chamfer"
       id="path-effect10"
       is_visible="true"
       lpeversion="1"
       nodesatellites_param="F,0,0,1,0,0,0,1 @ F,0,0,1,0,2.5639,0,1 @ F,0,0,1,0,0,0,1 @ F,0,0,1,0,0,0,1"
       radius="0"
       unit="px"
       method="auto"
       mode="F"
       chamfer_steps="1"
       flexible="false"
       use_knot_distance="true"
       apply_no_radius="true"
       apply_with_radius="true"
       only_selected="false"
       hide_knots="false" /><inkscape:path-effect
       effect="fillet_chamfer"
       id="path-effect9"
       is_visible="true"
       lpeversion="1"
       nodesatellites_param="F,0,0,1,0,2.5639,0,1 @ F,0,0,1,0,0,0,1 @ F,0,0,1,0,2.5639,0,1 @ F,0,0,1,0,2.563912,0,1"
       radius="0"
       unit="px"
       method="auto"
       mode="F"
       chamfer_steps="1"
       flexible="false"
       use_knot_distance="true"
       apply_no_radius="true"
       apply_with_radius="true"
       only_selected="false"
       hide_knots="false" /><inkscape:path-effect
       effect="fillet_chamfer"
       id="path-effect7"
       is_visible="true"
       lpeversion="1"
       nodesatellites_param="F,0,0,1,0,2.5639,0,1 @ F,0,0,1,0,0,0,1 @ F,0,0,1,0,2.5639,0,1 @ F,0,0,1,0,2.563912,0,1"
       radius="0"
       unit="px"
       method="auto"
       mode="F"
       chamfer_steps="1"
       flexible="false"
       use_knot_distance="true"
       apply_no_radius="true"
       apply_with_radius="true"
       only_selected="false"
       hide_knots="false" /><style
       id="current-color-scheme-6"
       type="text/css">.ColorScheme-Text {
      color:#333333;
    }
    .ColorScheme-Highlight {
      color:#60c0f0;
    }</style><linearGradient
       id="linearGradient946"
       x1="445.28"
       x2="445.28"
       y1="181.8"
       y2="200.07"
       gradientTransform="matrix(1.4724 0 0 1.4432 -625.58 -239.75)"
       gradientUnits="userSpaceOnUse"><stop
         stop-color="#ffffff"
         stop-opacity="0"
         offset="0"
         id="stop1-7" /><stop
         stop-color="#ffffff"
         offset="1"
         id="stop2-5" /></linearGradient><filter
       style="color-interpolation-filters:sRGB;"
       inkscape:label="Drop Shadow"
       id="filter94"
       x="-0.093567251"
       y="-0.059094396"
       width="1.1871345"
       height="1.1181888"><feFlood
         result="flood"
         in="SourceGraphic"
         flood-opacity="0.196078"
         flood-color="rgb(0,0,0)"
         id="feFlood93" /><feGaussianBlur
         result="blur"
         in="SourceGraphic"
         stdDeviation="1.000000"
         id="feGaussianBlur93" /><feOffset
         result="offset"
         in="blur"
         dx="0.000000"
         dy="0.000000"
         id="feOffset93" /><feComposite
         result="comp1"
         operator="in"
         in="flood"
         in2="offset"
         id="feComposite93" /><feComposite
         result="comp2"
         operator="over"
         in="SourceGraphic"
         in2="comp1"
         id="feComposite94" /></filter><filter
       style="color-interpolation-filters:sRGB;"
       inkscape:label="Drop Shadow"
       id="filter96"
       x="-0.052710783"
       y="-0.067002503"
       width="1.1054216"
       height="1.134005"><feFlood
         result="flood"
         in="SourceGraphic"
         flood-opacity="0.196078"
         flood-color="rgb(0,0,0)"
         id="feFlood94" /><feGaussianBlur
         result="blur"
         in="SourceGraphic"
         stdDeviation="1.000000"
         id="feGaussianBlur94" /><feOffset
         result="offset"
         in="blur"
         dx="0.000000"
         dy="0.000000"
         id="feOffset94" /><feComposite
         result="comp1"
         operator="in"
         in="flood"
         in2="offset"
         id="feComposite95" /><feComposite
         result="comp2"
         operator="over"
         in="SourceGraphic"
         in2="comp1"
         id="feComposite96" /></filter></defs><g
     id="g7"
     transform="translate(-84.564491,0.28475742)"><path
       id="path11"
       style="fill:#fc8c8c;fill-opacity:1;stroke-width:7.5258;stroke-linecap:round;stroke-linejoin:round;filter:url(#filter94)"
       d="m 189.564,-14.728516 a 2.5742207,3.3529383 0 0 0 -2.57572,3.353706 v 33.905575 a 2.574233,3.3529541 0 0 0 2.57572,3.353706 h 23.07428 V -8.2960301 h -0.0254 v -1.1464995 l -5.31718,-5.2859864 z"
       transform="matrix(1.2325781,0,0,1.2325781,-141.97372,24.839948)" /><path
       id="path49"
       style="fill:#fdb4b4;fill-opacity:1;stroke-width:9.15681;stroke-linecap:round;stroke-linejoin:round;filter:url(#filter96)"
       d="m 212.18968,-9.9350854 -4.76368,4.7636706 h 25.09376 v -2.246093 a 2.5639,2.5163627 0 0 0 -2.56446,-2.5175776 z m -22.6375,4.7638676 h 42.96703 V 23.320572 a 2.5639,2.5639 0 0 1 -2.5639,2.5639 H 189.55219 A 2.563912,2.563912 0 0 1 186.98828,23.32056 V -2.6073178 a 2.5639,2.5639 0 0 1 2.5639,-2.5639 z"
       transform="matrix(1.2325781,0,0,1.2325781,-141.97372,24.839948)" /><path
       d="m 131.46129,51.609745 c -1.09011,-0.181685 -2.63443,-0.817581 -3.54285,-1.408056 -2.08937,-1.362634 -3.45691,-2.878338 -4.3022,-4.770128 -0.27253,-0.635896 -0.43424,-1.090108 -0.90842,-2.725269 -0.0908,-0.40879 -0.24494,-0.866872 -0.30181,-1.009621 -0.0959,-0.240787 -0.10013,-0.322009 -0.0583,-1.125173 0.0397,-0.726738 0.18169,-1.816846 0.27253,-1.904054 0.0134,-0.02108 0.0451,-0.02607 0.0703,-0.01108 0.0854,0.05069 0.16435,-0.183674 0.24194,-0.718245 0.0425,-0.292875 0.1093,-0.600004 0.14843,-0.682525 0.0392,-0.08248 0.1054,-0.264615 0.14729,-0.404666 0.0964,-0.322363 0.22782,-0.570154 0.63414,-1.195485 0.1787,-0.275034 0.36445,-0.574595 0.41278,-0.665692 0.0569,-0.107176 0.119,-0.159692 0.17605,-0.1488 0.055,0.01045 0.14567,-0.05905 0.24066,-0.18441 0.41311,-0.545253 2.3589,-2.153961 2.53895,-2.099092 0.0491,0.01499 0.25447,-0.0526 0.45627,-0.150117 0.36502,-0.176407 0.52585,-0.217213 0.52585,-0.133429 0,0.02416 -0.0528,0.07903 -0.11724,0.121946 -0.11316,0.07531 -0.11089,0.07658 0.0651,0.0357 0.10031,-0.02335 0.26924,-0.0565 0.37541,-0.07376 0.13117,-0.02135 0.1845,-0.05278 0.1664,-0.09801 -0.0159,-0.0397 0.0219,-0.07903 0.0936,-0.09748 0.17938,-0.04606 0.45889,-0.03852 0.45889,0.01244 0,0.06114 -0.15982,0.122873 -0.28659,0.110809 -0.0865,-0.0082 -0.0909,-9.08e-4 -0.0261,0.04152 0.0645,0.04252 0.0653,0.0516 0.004,0.05223 -0.0406,4.18e-4 -0.0604,0.01354 -0.0442,0.02925 0.0164,0.01563 0.12498,-0.01817 0.24144,-0.07522 0.11647,-0.05705 0.32978,-0.127961 0.47402,-0.157657 0.17756,-0.03652 0.26226,-0.07894 0.26226,-0.131267 0,-0.06732 0.0825,-0.07304 0.6383,-0.04433 0.35108,0.01817 0.88086,0.07095 1.17732,0.117359 0.53893,0.08439 0.53898,0.08439 0.73982,-0.02653 0.2409,-0.133048 0.62837,-0.150371 0.73018,-0.03261 0.0372,0.04306 0.13978,0.114053 0.22784,0.157757 0.14366,0.07131 0.15316,0.0714 0.0924,9.09e-4 -0.11534,-0.133448 -7.9e-4,-0.130087 0.44458,0.01308 1.43585,0.461488 2.60635,1.283329 3.4749,2.439933 0.20597,0.274262 0.21844,0.397653 0.0233,0.230703 l -0.11167,-0.09554 0.0853,0.160046 c 0.0469,0.08803 0.0853,0.186945 0.0853,0.21982 0,0.03289 0.13808,0.275907 0.30683,0.540049 0.38034,0.595316 0.48673,0.795887 0.46122,0.86936 -0.011,0.03152 -0.17944,-0.178178 -0.37445,-0.465957 -0.19499,-0.287761 -0.48355,-0.675494 -0.64123,-0.861603 -0.23549,-0.277932 -0.29716,-0.32547 -0.34521,-0.266068 -0.0322,0.03979 -0.11074,0.07949 -0.17461,0.08839 l -0.11612,0.01608 0.11487,0.216114 c 0.0631,0.118858 0.12325,0.191995 0.1335,0.162517 0.0549,-0.157866 0.31017,0.04969 0.42627,0.346463 0.0376,0.09626 0.13776,0.294493 0.22246,0.440522 0.0847,0.146019 0.14332,0.275724 0.13029,0.288233 -0.013,0.01254 -0.0903,-0.02753 -0.17159,-0.08893 l -0.14789,-0.111645 0.10086,0.166187 c 0.0555,0.09141 0.14837,0.203214 0.20643,0.248472 0.0724,0.0565 0.10705,0.145675 0.11028,0.284355 0.006,0.256039 0.15881,0.558507 0.24192,0.478747 0.12948,-0.124254 0.1561,-0.0466 0.12352,0.360326 -0.024,0.299807 -0.0113,0.497416 0.0457,0.707199 0.0865,0.318484 0.0679,0.397089 -0.0586,0.248244 -0.0804,-0.09466 -0.0812,-0.09459 -0.0452,0.0036 0.0772,0.210591 0.13486,0.525632 0.11883,0.649286 -0.0299,0.23074 -0.12021,0.13481 -0.15126,-0.160772 l -0.0303,-0.288488 -0.009,0.30701 c -0.005,0.168867 -0.0462,0.495154 -0.0918,0.725094 -0.0461,0.232257 -0.0696,0.513686 -0.0527,0.63318 0.0317,0.224808 0.009,0.233519 -0.18652,0.07249 -0.0797,-0.06559 -0.0934,-0.05233 -0.14815,0.142759 -0.0461,0.164143 -0.0457,0.257592 0.002,0.395055 0.0341,0.09904 0.0539,0.233365 0.044,0.29849 -0.0228,0.150307 -0.14826,0.197173 -0.14826,0.05541 0,-0.17825 -0.0707,-0.114806 -0.28659,0.257311 -0.5831,1.004898 -1.50571,1.782508 -2.54994,2.149329 -0.61563,0.216259 -1.02852,0.296445 -1.72283,0.334581 l -0.62528,0.03434 0.30894,0.09146 c 0.24912,0.07376 0.39541,0.08476 0.75555,0.05687 0.47181,-0.03661 1.02579,-0.134847 1.27697,-0.226497 0.10025,-0.03661 0.16795,-0.03825 0.2026,-0.0055 0.0817,0.0784 -0.64398,0.386643 -1.07475,0.456483 -0.73297,0.11884 -1.71411,-0.0096 -2.5802,-0.337761 -0.58763,-0.222655 -1.45965,-0.802528 -1.32602,-0.881779 0.0254,-0.01499 0.19121,0.06077 0.36866,0.168485 0.22683,0.137626 0.32264,0.173881 0.32264,0.122038 0,-0.09792 0.0335,-0.09322 0.21375,0.02989 0.16274,0.111209 0.66329,0.317703 1.02379,0.422362 0.39299,0.114071 0.24062,-0.02416 -0.28659,-0.260072 -1.66695,-0.745788 -2.3589,-1.491722 -2.70383,-2.914494 -0.12647,-0.521743 0.009,-1.665593 0.23969,-2.023784 0.0585,-0.09075 0.10629,-0.202406 0.10629,-0.248072 0,-0.198173 0.34433,-0.721751 0.69767,-1.060857 0.6226,-0.597497 1.26988,-0.845551 2.11026,-0.808641 0.40621,0.0179 0.5797,0.05214 0.91778,0.18133 0.38345,0.146547 0.86627,0.453339 0.7184,0.456492 -0.0348,7.35e-4 -0.18718,-0.04824 -0.3387,-0.10883 -0.23032,-0.09211 -0.378,-0.110555 -0.90077,-0.112508 -0.73409,-0.0027 -1.09292,0.0972 -1.61536,0.449969 -0.74067,0.500133 -1.15251,1.076209 -1.29841,1.816029 -0.0979,0.496416 -0.10087,0.633961 -0.0245,1.126353 0.044,0.283737 0.0752,0.366994 0.13027,0.346736 0.0462,-0.01699 0.0724,0.0082 0.0724,0.06886 0,0.175861 0.39873,0.889209 0.67525,1.208111 0.66558,0.767581 1.74218,1.257439 2.76379,1.257439 0.53021,0 0.95884,-0.09766 1.35337,-0.308382 0.15843,-0.08467 0.3584,-0.188071 0.44437,-0.229895 0.30335,-0.147564 0.49155,-0.316113 0.71158,-0.637276 0.12232,-0.178551 0.25529,-0.324625 0.2955,-0.324625 0.0594,0 0.0569,0.0258 -0.0137,0.137517 -0.23259,0.368365 0.31326,-0.301415 0.59592,-0.731235 l 0.31661,-0.481419 -0.0345,-0.31624 c -0.0332,-0.303886 -0.0283,-0.322436 0.12313,-0.47506 0.14591,-0.146974 0.15902,-0.190478 0.17584,-0.58338 0.0151,-0.351651 0.004,-0.424661 -0.06,-0.42506 -0.0601,-3.46e-4 -0.0859,-0.09296 -0.11183,-0.400524 -0.0342,-0.407046 -0.3796,-1.776694 -0.46001,-1.824477 -0.0243,-0.01435 -0.0916,-0.146092 -0.14964,-0.292675 -0.19586,-0.494673 -0.53939,-0.970378 -1.07503,-1.488542 -0.77072,-0.745606 -1.74163,-1.321392 -2.65868,-1.576659 -0.78008,-0.217167 -2.10473,-0.138335 -3.0483,0.181385 -0.46049,0.156049 -0.91424,0.36266 -0.99073,0.451195 -0.0347,0.04015 -0.0851,0.06005 -0.11192,0.04415 -0.0283,-0.01672 -0.0204,-0.06159 0.0185,-0.10664 0.17382,-0.200998 -0.40297,0.166877 -0.7743,0.493837 -0.22449,0.197673 -0.41635,0.365413 -0.42635,0.372762 -0.01,0.0073 0.0337,3.45e-4 0.0971,-0.01553 0.10551,-0.02643 0.10998,-0.01944 0.0528,0.08321 -0.0367,0.06577 -0.22771,0.184046 -0.46185,0.285971 -0.39341,0.171256 -0.64786,0.359463 -0.85002,0.628765 -0.0807,0.107521 -0.0854,0.130677 -0.0215,0.107167 0.0448,-0.01653 0.0815,-0.0064 0.0815,0.02298 0,0.142813 -0.13521,0.30225 -0.33549,0.395645 -0.44374,0.206894 -1.22328,1.312035 -1.6408,2.326199 -0.18608,0.451949 -0.18312,0.436252 -0.0819,0.436252 0.10664,0 0.0992,0.116223 -0.0472,0.740573 -0.21338,0.909423 -0.21363,0.880344 0.0187,2.159776 0.28313,1.558854 0.44854,2.079652 0.76303,2.402324 0.0738,0.07567 0.14549,0.236708 0.17746,0.398471 0.0382,0.193149 0.10225,0.320619 0.22218,0.441939 0.10934,0.110609 0.1458,0.178441 0.10379,0.193139 -0.0824,0.0288 0.17558,0.39798 0.41096,0.588041 0.11841,0.09561 0.20616,0.12776 0.30122,0.110319 0.20835,-0.03824 0.42047,0.07694 0.74642,0.405193 0.33874,0.341131 0.37268,0.432845 0.14851,0.401268 -0.14458,-0.02035 -0.14789,-0.01662 -0.0768,0.08766 0.041,0.05996 0.19189,0.204041 0.33548,0.320228 0.20168,0.163216 0.25363,0.233819 0.22831,0.310372 -0.0364,0.110083 0.0674,0.212789 0.30235,0.29898 0.14567,0.05342 0.1926,0.168712 0.0829,0.203777 -0.0332,0.01063 0.17199,0.21328 0.45593,0.450369 0.3199,0.267113 0.53509,0.413524 0.56575,0.384917 0.081,-0.07549 0.18486,-0.05251 0.18672,0.04133 0.002,0.102397 0.094,0.209981 0.42484,0.496943 0.20908,0.18134 0.26127,0.204159 0.38942,0.170284 0.11735,-0.03107 0.19115,-0.01108 0.35642,0.0961 0.32973,0.213916 0.52966,0.299298 0.70085,0.299298 0.16845,0 0.19244,0.04642 0.10497,0.203314 -0.0463,0.08303 -0.0364,0.09672 0.07,0.09672 0.0681,0 0.26025,0.04497 0.42684,0.100008 0.3788,0.125072 0.53681,0.133575 0.44187,0.0238 -0.14024,-0.162172 0.008,-0.11785 0.50956,0.151798 0.70015,0.376795 1.05432,0.419845 2.44856,0.297581 0.20643,-0.01808 0.27357,-0.0073 0.27357,0.04306 0,0.04342 -0.17912,0.108629 -0.50805,0.185 -0.4324,0.100381 -0.66319,0.119803 -1.55013,0.13045 -0.69893,0.0082 -1.17632,-0.0099 -1.44966,-0.05541 z m -0.71277,-7.496397 c 0,-0.01063 -0.0645,-0.05696 -0.14329,-0.102979 l -0.1433,-0.08376 0.12302,0.102979 c 0.12004,0.10048 0.16357,0.122764 0.16357,0.08376 z m 7.17427,-5.240782 c -0.0166,-0.03988 -0.029,-0.02807 -0.0315,0.03025 -0.003,0.05269 0.0101,0.08221 0.0273,0.06559 0.0173,-0.01662 0.0192,-0.05977 0.004,-0.09584 z m -11.82494,-5.244599 c 0.0649,-0.0793 0.063,-0.08112 -0.0197,-0.01889 -0.0502,0.03779 -0.0912,0.07712 -0.0912,0.08748 0,0.04115 0.0428,0.01463 0.11086,-0.06859 z m 0.59258,-0.462559 c 0.0519,-0.05505 0.0826,-0.100009 0.0682,-0.100009 -0.0144,0 -0.0685,0.04497 -0.12035,0.100009 -0.0519,0.05505 -0.0826,0.100008 -0.0682,0.100008 0.0143,0 0.0685,-0.04497 0.12036,-0.100008 z m 0.6559,-0.351524 c 0.17177,-0.05578 0.26937,-0.06568 0.30559,-0.03089 0.0362,0.03479 0.17063,0.01417 0.42079,-0.06459 0.20216,-0.06359 0.35827,-0.124554 0.34691,-0.135464 -0.0114,-0.0109 -0.17781,0.03052 -0.36989,0.09208 -0.26381,0.08457 -0.35875,0.09711 -0.38817,0.05142 -0.0497,-0.07721 -0.52386,0.07494 -0.72765,0.233556 l -0.13926,0.108357 0.14965,-0.08621 c 0.0823,-0.04742 0.26323,-0.123127 0.40203,-0.16823 z m 1.50226,-0.126943 c 0.15133,-0.04315 0.26611,-0.08712 0.25508,-0.09766 -0.0243,-0.02335 -0.5634,0.124781 -0.5634,0.154831 0,0.03025 0.005,0.02952 0.30832,-0.05714 z m 0.86408,-0.272608 0.20844,-0.03652 -0.18237,-0.0045 c -0.10031,-0.0027 -0.241,0.03007 -0.31265,0.07222 -0.0843,0.04969 -0.0935,0.06413 -0.0261,0.04097 0.0573,-0.01962 0.198,-0.05214 0.31264,-0.07222 z m 0.41386,-0.09437 c 0.0161,-0.02489 -0.0177,-0.03352 -0.0751,-0.01917 -0.12167,0.03052 -0.13705,0.0645 -0.0292,0.0645 0.0413,0 0.0882,-0.02044 0.10429,-0.04533 z m 1.6824,0.01508 c -0.0173,-0.01662 -0.0622,-0.01835 -0.0999,-0.0036 -0.0416,0.01599 -0.0292,0.0278 0.0315,0.03025 0.055,0.0018 0.0857,-0.0096 0.0684,-0.02625 z m -0.31155,-0.05423 c -0.0502,-0.01254 -0.13222,-0.01254 -0.18237,0 -0.0502,0.01254 -0.009,0.02289 0.0912,0.02289 0.1003,0 0.14134,-0.01027 0.0912,-0.02289 z m -0.51969,-0.05187 c -0.10671,-0.01072 -0.2943,-0.0109 -0.41686,-3.27e-4 -0.12255,0.01054 -0.0353,0.01935 0.19402,0.01953 0.22928,1.81e-4 0.32955,-0.0082 0.22284,-0.01917 z m -0.67986,-0.04388 c -0.0173,-0.01662 -0.0622,-0.01844 -0.0999,-0.0036 -0.0416,0.01599 -0.0292,0.0278 0.0315,0.03025 0.055,0.0018 0.0857,-0.0096 0.0684,-0.02625 z m -0.35271,12.019345 c -0.53076,-0.364958 -0.72742,-0.553729 -0.72742,-0.698277 0,-0.07667 0.0181,-0.139425 0.0401,-0.139425 0.0751,0 0.96248,0.888856 0.94303,0.94476 -0.0113,0.03234 -0.1183,-0.01245 -0.2558,-0.107021 z M 129.672,43.277726 c -0.27565,-0.267321 -0.36397,-0.411107 -0.25256,-0.411107 0.0669,0 0.57986,0.563595 0.57986,0.63715 0,0.03461 -0.006,0.06295 -0.0146,0.06295 -0.008,0 -0.14875,-0.130032 -0.31264,-0.288979 z m 3.04994,-1.094286 c -0.14553,-0.05632 -0.0547,-0.160782 0.18238,-0.209591 0.13613,-0.02807 0.35246,-0.09607 0.48073,-0.151207 0.12827,-0.05514 0.24248,-0.09134 0.2538,-0.08049 0.0114,0.0109 -0.0468,0.122002 -0.129,0.246982 -0.14869,0.225843 -0.15135,0.227206 -0.43618,0.223373 -0.15763,-0.0018 -0.31591,-0.01517 -0.35173,-0.02907 z m 1.56322,-1.118541 c -0.14065,-0.05423 -0.14648,-0.146583 -0.0291,-0.461007 0.10086,-0.270065 0.20547,-0.323344 0.14728,-0.07503 -0.021,0.08939 -0.0489,0.218784 -0.0621,0.287534 l -0.0241,0.125017 0.10413,-0.113807 c 0.0616,-0.06731 0.11866,-0.225416 0.13969,-0.386989 0.0195,-0.150253 0.0563,-0.260844 0.0818,-0.245782 0.0645,0.03824 0.0576,0.433617 -0.0121,0.699431 -0.061,0.232193 -0.11573,0.259245 -0.34554,0.170602 z m -12.33094,-0.627611 c -0.0174,-0.04352 -0.0316,-0.214152 -0.0316,-0.379212 0,-0.217777 0.0179,-0.294438 0.0651,-0.27944 0.0774,0.02453 0.1228,0.737757 0.047,0.737757 -0.0269,0 -0.063,-0.03561 -0.0805,-0.07912 z m 12.53533,-1.169686 c -0.0809,-0.105095 -0.10591,-0.18807 -0.0829,-0.27587 0.0471,-0.180312 0.17051,-0.154668 0.26152,0.05432 0.14158,0.325188 0.0187,0.477594 -0.17857,0.221501 z m -12.54623,-0.793916 c -0.004,-0.283555 -2e-5,-0.292321 0.13077,-0.287534 0.11091,0.0036 0.13769,0.03207 0.15048,0.157621 0.0144,0.141577 -0.14599,0.422389 -0.2413,0.422389 -0.0197,0 -0.0377,-0.131612 -0.04,-0.292467 z m 13.50644,-6.147389 c 0.007,-0.447516 0.0858,-0.599114 0.14706,-0.28579 0.0427,0.218322 -0.0116,0.603838 -0.0943,0.66969 -0.045,0.03579 -0.0584,-0.06177 -0.0528,-0.3839 z m -6.84679,-0.268175 c 0.021,-0.06032 0.73975,-0.342839 0.87234,-0.342839 0.15578,0 -0.12366,0.183183 -0.44596,0.29234 -0.35935,0.12171 -0.45505,0.133047 -0.42638,0.05051 z"
       fill="#000000"
       opacity="0.15"
       id="path7"
       style="opacity:1;fill:#fa3636;fill-opacity:1;stroke-width:0.908423" /></g></svg>
