<?xml version="1.0" encoding="UTF-8" standalone="no"?>
<svg
   version="1.1"
   viewBox="0 0 64 64"
   id="svg8"
   sodipodi:docname="folder-decrypted.svg"
   xml:space="preserve"
   inkscape:version="1.4.3 (0d15f75042, 2025-12-25)"
   xmlns:inkscape="http://www.inkscape.org/namespaces/inkscape"
   xmlns:sodipodi="http://sodipodi.sourceforge.net/DTD/sodipodi-0.dtd"
   xmlns="http://www.w3.org/2000/svg"
   xmlns:svg="http://www.w3.org/2000/svg"><sodipodi:namedview
     id="namedview8"
     pagecolor="#505050"
     bordercolor="#eeeeee"
     borderopacity="1"
     inkscape:showpageshadow="0"
     inkscape:pageopacity="0"
     inkscape:pagecheckerboard="0"
     inkscape:deskcolor="#505050"
     inkscape:zoom="8.5300822"
     inkscape:cx="37.39706"
     inkscape:cy="23.387817"
     inkscape:window-width="1536"
     inkscape:window-height="835"
     inkscape:window-x="0"
     inkscape:window-y="0"
     inkscape:window-maximized="1"
     inkscape:current-layer="svg8" /><defs
     id="defs2"><style
       id="current-color-scheme"
       type="text/css">.ColorScheme-Text {
        color:#232629;
      }
      .ColorScheme-Highlight {
        color:#3daee9;
      }</style><linearGradient
       id="a"
       x1="445.28"
       x2="445.28"
       y1="179.28"
       y2="200.07"
       gradientTransform="matrix(1.4723 0 0 1.4432 -625.56 -239.75)"
       gradientUnits="userSpaceOnUse"><stop
         stop-opacity=".15"
         offset="0"
         id="stop1" /><stop
         stop-opacity="0"
         offset="1"
         id="stop2" /></linearGradient><style
       id="current-color-scheme-67"
       type="text/css">.ColorScheme-Text {
      color:#333333;
    }
    .ColorScheme-Highlight {
      color:#60c0f0;
    }</style><inkscape:path-effect
       effect="fillet_chamfer"
       id="path-effect10"
       is_visible="true"
       lpeversion="1"
       nodesatellites_param="F,0,0,1,0,0,0,1 @ F,0,0,1,0,2.5639,0,1 @ F,0,0,1,0,0,0,1 @ F,0,0,1,0,0,0,1"
       radius="0"
       unit="px"
       method="auto"
       mode="F"
       chamfer_steps="1"
       flexible="false"
       use_knot_distance="true"
       apply_no_radius="true"
       apply_with_radius="true"
       only_selected="false"
       hide_knots="false" /><inkscape:path-effect
       effect="fillet_chamfer"
       id="path-effect9"
       is_visible="true"
       lpeversion="1"
       nodesatellites_param="F,0,0,1,0,2.5639,0,1 @ F,0,0,1,0,0,0,1 @ F,0,0,1,0,2.5639,0,1 @ F,0,0,1,0,2.563912,0,1"
       radius="0"
       unit="px"
       method="auto"
       mode="F"
       chamfer_steps="1"
       flexible="false"
       use_knot_distance="true"
       apply_no_radius="true"
       apply_with_radius="true"
       only_selected="false"
       hide_knots="false" /><inkscape:path-effect
       effect="fillet_chamfer"
       id="path-effect7"
       is_visible="true"
       lpeversion="1"
       nodesatellites_param="F,0,0,1,0,2.5639,0,1 @ F,0,0,1,0,0,0,1 @ F,0,0,1,0,2.5639,0,1 @ F,0,0,1,0,2.563912,0,1"
       radius="0"
       unit="px"
       method="auto"
       mode="F"
       chamfer_steps="1"
       flexible="false"
       use_knot_distance="true"
       apply_no_radius="true"
       apply_with_radius="true"
       only_selected="false"
       hide_knots="false" /><style
       id="current-color-scheme-6"
       type="text/css">.ColorScheme-Text {
      color:#333333;
    }
    .ColorScheme-Highlight {
      color:#60c0f0;
    }</style><linearGradient
       id="linearGradient946"
       x1="445.28"
       x2="445.28"
       y1="181.8"
       y2="200.07"
       gradientTransform="matrix(1.4724 0 0 1.4432 -625.58 -239.75)"
       gradientUnits="userSpaceOnUse"><stop
         stop-color="#ffffff"
         stop-opacity="0"
         offset="0"
         id="stop1-7" /><stop
         stop-color="#ffffff"
         offset="1"
         id="stop2-5" /></linearGradient><filter
       style="color-interpolation-filters:sRGB;"
       inkscape:label="Drop Shadow"
       id="filter94"
       x="-0.093567251"
       y="-0.059094396"
       width="1.1871345"
       height="1.1181888"><feFlood
         result="flood"
         in="SourceGraphic"
         flood-opacity="0.196078"
         flood-color="rgb(0,0,0)"
         id="feFlood93" /><feGaussianBlur
         result="blur"
         in="SourceGraphic"
         stdDeviation="1.000000"
         id="feGaussianBlur93" /><feOffset
         result="offset"
         in="blur"
         dx="0.000000"
         dy="0.000000"
         id="feOffset93" /><feComposite
         result="comp1"
         operator="in"
         in="flood"
         in2="offset"
         id="feComposite93" /><feComposite
         result="comp2"
         operator="over"
         in="SourceGraphic"
         in2="comp1"
         id="feComposite94" /></filter><filter
       style="color-interpolation-filters:sRGB;"
       inkscape:label="Drop Shadow"
       id="filter96"
       x="-0.052710783"
       y="-0.067002503"
       width="1.1054216"
       height="1.134005"><feFlood
         result="flood"
         in="SourceGraphic"
         flood-opacity="0.196078"
         flood-color="rgb(0,0,0)"
         id="feFlood94" /><feGaussianBlur
         result="blur"
         in="SourceGraphic"
         stdDeviation="1.000000"
         id="feGaussianBlur94" /><feOffset
         result="offset"
         in="blur"
         dx="0.000000"
         dy="0.000000"
         id="feOffset94" /><feComposite
         result="comp1"
         operator="in"
         in="flood"
         in2="offset"
         id="feComposite95" /><feComposite
         result="comp2"
         operator="over"
         in="SourceGraphic"
         in2="comp1"
         id="feComposite96" /></filter><inkscape:path-effect
       effect="fillet_chamfer"
       id="path-effect10-6"
       is_visible="true"
       lpeversion="1"
       nodesatellites_param="F,0,0,1,0,0,0,1 @ F,0,0,1,0,2.5639,0,1 @ F,0,0,1,0,0,0,1 @ F,0,0,1,0,0,0,1"
       radius="0"
       unit="px"
       method="auto"
       mode="F"
       chamfer_steps="1"
       flexible="false"
       use_knot_distance="true"
       apply_no_radius="true"
       apply_with_radius="true"
       only_selected="false"
       hide_knots="false" /><inkscape:path-effect
       effect="fillet_chamfer"
       id="path-effect9-2"
       is_visible="true"
       lpeversion="1"
       nodesatellites_param="F,0,0,1,0,2.5639,0,1 @ F,0,0,1,0,0,0,1 @ F,0,0,1,0,2.5639,0,1 @ F,0,0,1,0,2.563912,0,1"
       radius="0"
       unit="px"
       method="auto"
       mode="F"
       chamfer_steps="1"
       flexible="false"
       use_knot_distance="true"
       apply_no_radius="true"
       apply_with_radius="true"
       only_selected="false"
       hide_knots="false" /><inkscape:path-effect
       effect="fillet_chamfer"
       id="path-effect7-9"
       is_visible="true"
       lpeversion="1"
       nodesatellites_param="F,0,0,1,0,2.5639,0,1 @ F,0,0,1,0,0,0,1 @ F,0,0,1,0,2.5639,0,1 @ F,0,0,1,0,2.563912,0,1"
       radius="0"
       unit="px"
       method="auto"
       mode="F"
       chamfer_steps="1"
       flexible="false"
       use_knot_distance="true"
       apply_no_radius="true"
       apply_with_radius="true"
       only_selected="false"
       hide_knots="false" /><style
       id="current-color-scheme-1"
       type="text/css">.ColorScheme-Text {
      color:#333333;
    }
    .ColorScheme-Highlight {
      color:#60c0f0;
    }</style><filter
       style="color-interpolation-filters:sRGB;"
       inkscape:label="Drop Shadow"
       id="filter94-0"
       x="-0.093567251"
       y="-0.059094396"
       width="1.1871345"
       height="1.1181888"><feFlood
         result="flood"
         in="SourceGraphic"
         flood-opacity="0.196078"
         flood-color="rgb(0,0,0)"
         id="feFlood93-9" /><feGaussianBlur
         result="blur"
         in="SourceGraphic"
         stdDeviation="1.000000"
         id="feGaussianBlur93-3" /><feOffset
         result="offset"
         in="blur"
         dx="0.000000"
         dy="0.000000"
         id="feOffset93-6" /><feComposite
         result="comp1"
         operator="in"
         in="flood"
         in2="offset"
         id="feComposite93-0" /><feComposite
         result="comp2"
         operator="over"
         in="SourceGraphic"
         in2="comp1"
         id="feComposite94-6" /></filter><filter
       style="color-interpolation-filters:sRGB;"
       inkscape:label="Drop Shadow"
       id="filter96-2"
       x="-0.052710783"
       y="-0.067002503"
       width="1.1054216"
       height="1.134005"><feFlood
         result="flood"
         in="SourceGraphic"
         flood-opacity="0.196078"
         flood-color="rgb(0,0,0)"
         id="feFlood94-6" /><feGaussianBlur
         result="blur"
         in="SourceGraphic"
         stdDeviation="1.000000"
         id="feGaussianBlur94-1" /><feOffset
         result="offset"
         in="blur"
         dx="0.000000"
         dy="0.000000"
         id="feOffset94-8" /><feComposite
         result="comp1"
         operator="in"
         in="flood"
         in2="offset"
         id="feComposite95-7" /><feComposite
         result="comp2"
         operator="over"
         in="SourceGraphic"
         in2="comp1"
         id="feComposite96-9" /></filter><clipPath
       id="clip0_31_5154"><rect
         width="24"
         height="24"
         fill="white"
         id="rect1" /></clipPath></defs><g
     id="g25"
     transform="translate(-69.154291,-0.31888258)"><path
       id="path11"
       style="fill:#6d6d6d;fill-opacity:1;stroke-width:7.5258;stroke-linecap:round;stroke-linejoin:round;filter:url(#filter94-0)"
       d="m 189.564,-14.728516 a 2.5742207,3.3529383 0 0 0 -2.57572,3.353706 v 33.905575 a 2.574233,3.3529541 0 0 0 2.57572,3.353706 h 23.07428 V -8.2960301 h -0.0254 v -1.1464995 l -5.31718,-5.2859864 z"
       transform="matrix(1.2325781,0,0,1.2325781,-157.38392,25.443588)" /><path
       id="path49"
       style="fill:#868686;fill-opacity:1;stroke-width:9.15681;stroke-linecap:round;stroke-linejoin:round;filter:url(#filter96-2)"
       d="m 212.18968,-9.9350854 -4.76368,4.7636706 h 25.09376 v -2.246093 a 2.5639,2.5163627 0 0 0 -2.56446,-2.5175776 z m -22.6375,4.7638676 h 42.96703 V 23.320572 a 2.5639,2.5639 0 0 1 -2.5639,2.5639 H 189.55219 A 2.563912,2.563912 0 0 1 186.98828,23.32056 V -2.6073178 a 2.5639,2.5639 0 0 1 2.5639,-2.5639 z"
       transform="matrix(1.2325781,0,0,1.2325781,-157.38392,25.443588)" /><g
       clip-path="url(#clip0_31_5154)"
       id="g1-5"
       transform="matrix(0.95238095,0,0,0.95238095,103.72577,32.318903)"
       style="fill:#5c5c5c;fill-opacity:1"><path
         fill-rule="evenodd"
         clip-rule="evenodd"
         d="m 16,6.5 c -0.5523,0 -1,-0.44771 -1,-1 V 5 C 15,3.34315 13.6569,2 12,2 10.3431,2 9,3.34315 9,5 v 4 l 10,3e-5 c 1.1046,0 2,0.89543 2,1.99997 v 8 c 0,1.1046 -0.8954,2 -2,2 H 5 C 3.89543,21 3,20.1046 3,19 V 11 C 3,9.89546 3.89543,9.00003 5,9.00003 H 7 V 5 c 0,-2.76142 2.23858,-5 5,-5 2.7614,0 5,2.23858 5,5 v 0.5 c 0,0.55229 -0.4477,1 -1,1 z m -4,10 c 0.8284,0 1.5,-0.6715 1.5,-1.5 0,-0.8284 -0.6716,-1.5 -1.5,-1.5 -0.8284,0 -1.5,0.6716 -1.5,1.5 0,0.8285 0.6716,1.5 1.5,1.5 z"
         fill="#000000"
         id="path1-9"
         style="fill:#5c5c5c;fill-opacity:1" /></g><path
       id="path7"
       style="opacity:0.488677;fill:#5c5c5c;fill-opacity:1;stroke-width:1.0591"
       d="m 107.01562,13.197266 v 3.027343 h 4.23633 v -3.027343 z m 4.23633,3.027343 v 4.236329 h 4.23633 v -4.236329 z m 4.23633,0 h 4.23633 v -3.027343 h -4.23633 z m 4.23633,0 v 4.236329 h 4.23633 v -4.236329 z m 4.23633,0 h 4.23633 v -2.205078 a 3.160207,3.1016136 0 0 0 -2.14258,-0.822265 h -2.09375 z m 4.23633,0 v 4.236329 h 1.01757 v -1.390626 -2.769531 a 3.160207,3.1016136 0 0 0 0,-0.07617 z m 0,4.236329 h -4.23633 v 4.236328 h 4.23633 z m -8.47266,0 h -4.23633 v 4.236328 h 4.23633 z m -8.47266,0 h -4.23633 v 4.236328 h 4.23633 z m -4.23633,0 v -4.236329 h -4.23632 v 4.236329 z m -4.23632,0 h -4.236331 v 4.236328 h 4.236331 z m -4.236331,0 V 18.8125 l -0.257813,0.257812 h -3.978515 v 1.390626 z m -4.236328,0 h -4.236329 v 4.236328 h 4.236329 z m -4.236329,0 v -1.390626 h -4.236328 v 1.390626 z m -4.236328,0 h -4.236328 v 4.236328 h 4.236328 z m -4.236328,0 v -1.390626 h -4.236328 v 1.390626 z m -4.236328,0 H 73.634766 A 3.160207,3.160207 0 0 0 73.125,21.792969 v 2.904297 h 4.236328 z M 102.7793,16.224609 v -1.65039 l -1.64844,1.65039 z" /><path
       id="path23"
       style="opacity:0.488677;fill:#5c5c5c;fill-opacity:1;stroke-width:1.0591"
       d="m 77.361328,24.697266 v 4.236328 h 4.236328 v -4.236328 z m 8.472656,0 v 4.236328 h 4.236328 v -4.236328 z m 8.472657,0 v 4.236328 h 4.236328 v -4.236328 z m 8.472659,0 v 4.236328 h 4.23632 v -4.236328 z m 8.47265,0 v 4.236328 h 4.23633 v -4.236328 z m 8.47266,0 v 4.236328 h 4.23633 v -4.236328 z m 8.47266,0 v 4.236328 h 1.01757 v -4.236328 z" /><path
       id="path24"
       style="opacity:0.488677;fill:#5c5c5c;fill-opacity:1;stroke-width:1.0591"
       d="m 77.361318,28.933594 h -4.23632 v 4.236328 h 4.23632 z m 33.890632,0 h 4.23633 z m 8.47266,0 h 4.23633 z m 8.47266,0 h -4.23633 v 4.236328 h 4.23633 z m -8.47266,0 h -4.23633 v 4.236328 h 4.23633 z m -8.47266,0 h -4.23633 v 4.236328 h 4.23633 z m -4.23633,0 h -4.23632 z m -4.23632,0 h -4.23633 v 4.236328 h 4.23633 z m -4.23633,0 h -4.236332 z m -4.236332,0 h -4.23633 v 4.236328 h 4.23633 z m -4.23633,0 h -4.23633 z m -4.23633,0 h -4.23632 v 4.236328 h 4.23632 z m -4.23632,0 h -4.23633 z" /></g></svg>
