<?xml version="1.0" encoding="UTF-8" standalone="no"?>
<svg
   width="64"
   height="64"
   version="1.1"
   viewBox="0 0 64 64"
   id="svg7"
   sodipodi:docname="folder-sign.svg"
   xml:space="preserve"
   inkscape:version="1.4.3 (0d15f75042, 2025-12-25)"
   xmlns:inkscape="http://www.inkscape.org/namespaces/inkscape"
   xmlns:sodipodi="http://sodipodi.sourceforge.net/DTD/sodipodi-0.dtd"
   xmlns="http://www.w3.org/2000/svg"
   xmlns:svg="http://www.w3.org/2000/svg"><sodipodi:namedview
     id="namedview7"
     pagecolor="#505050"
     bordercolor="#eeeeee"
     borderopacity="1"
     inkscape:showpageshadow="0"
     inkscape:pageopacity="0"
     inkscape:pagecheckerboard="0"
     inkscape:deskcolor="#505050"
     inkscape:zoom="4.6276245"
     inkscape:cx="65.152218"
     inkscape:cy="31.00943"
     inkscape:window-width="1536"
     inkscape:window-height="835"
     inkscape:window-x="0"
     inkscape:window-y="0"
     inkscape:window-maximized="1"
     inkscape:current-layer="svg7" /><defs
     id="defs2"><style
       id="current-color-scheme"
       type="text/css">.ColorScheme-Text {
      color:#333333;
    }
    .ColorScheme-Highlight {
      color:#60c0f0;
    }</style><linearGradient
       id="linearGradient946"
       x1="445.28"
       x2="445.28"
       y1="181.8"
       y2="200.07"
       gradientTransform="matrix(1.4724 0 0 1.4432 -625.58 -239.75)"
       gradientUnits="userSpaceOnUse"><stop
         stop-color="#ffffff"
         stop-opacity="0"
         offset="0"
         id="stop1" /><stop
         stop-color="#ffffff"
         offset="1"
         id="stop2" /></linearGradient><inkscape:path-effect
       effect="fillet_chamfer"
       id="path-effect10"
       is_visible="true"
       lpeversion="1"
       nodesatellites_param="F,0,0,1,0,0,0,1 @ F,0,0,1,0,2.5639,0,1 @ F,0,0,1,0,0,0,1 @ F,0,0,1,0,0,0,1"
       radius="0"
       unit="px"
       method="auto"
       mode="F"
       chamfer_steps="1"
       flexible="false"
       use_knot_distance="true"
       apply_no_radius="true"
       apply_with_radius="true"
       only_selected="false"
       hide_knots="false" /><inkscape:path-effect
       effect="fillet_chamfer"
       id="path-effect9"
       is_visible="true"
       lpeversion="1"
       nodesatellites_param="F,0,0,1,0,2.5639,0,1 @ F,0,0,1,0,0,0,1 @ F,0,0,1,0,2.5639,0,1 @ F,0,0,1,0,2.563912,0,1"
       radius="0"
       unit="px"
       method="auto"
       mode="F"
       chamfer_steps="1"
       flexible="false"
       use_knot_distance="true"
       apply_no_radius="true"
       apply_with_radius="true"
       only_selected="false"
       hide_knots="false" /><inkscape:path-effect
       effect="fillet_chamfer"
       id="path-effect7"
       is_visible="true"
       lpeversion="1"
       nodesatellites_param="F,0,0,1,0,2.5639,0,1 @ F,0,0,1,0,0,0,1 @ F,0,0,1,0,2.5639,0,1 @ F,0,0,1,0,2.563912,0,1"
       radius="0"
       unit="px"
       method="auto"
       mode="F"
       chamfer_steps="1"
       flexible="false"
       use_knot_distance="true"
       apply_no_radius="true"
       apply_with_radius="true"
       only_selected="false"
       hide_knots="false" /><style
       id="current-color-scheme-6"
       type="text/css">.ColorScheme-Text {
      color:#333333;
    }
    .ColorScheme-Highlight {
      color:#60c0f0;
    }</style><filter
       style="color-interpolation-filters:sRGB;"
       inkscape:label="Drop Shadow"
       id="filter94"
       x="-0.093567251"
       y="-0.059094396"
       width="1.1871345"
       height="1.1181888"><feFlood
         result="flood"
         in="SourceGraphic"
         flood-opacity="0.196078"
         flood-color="rgb(0,0,0)"
         id="feFlood93" /><feGaussianBlur
         result="blur"
         in="SourceGraphic"
         stdDeviation="1.000000"
         id="feGaussianBlur93" /><feOffset
         result="offset"
         in="blur"
         dx="0.000000"
         dy="0.000000"
         id="feOffset93" /><feComposite
         result="comp1"
         operator="in"
         in="flood"
         in2="offset"
         id="feComposite93" /><feComposite
         result="comp2"
         operator="over"
         in="SourceGraphic"
         in2="comp1"
         id="feComposite94" /></filter><filter
       style="color-interpolation-filters:sRGB;"
       inkscape:label="Drop Shadow"
       id="filter96"
       x="-0.052710783"
       y="-0.067002503"
       width="1.1054216"
       height="1.134005"><feFlood
         result="flood"
         in="SourceGraphic"
         flood-opacity="0.196078"
         flood-color="rgb(0,0,0)"
         id="feFlood94" /><feGaussianBlur
         result="blur"
         in="SourceGraphic"
         stdDeviation="1.000000"
         id="feGaussianBlur94" /><feOffset
         result="offset"
         in="blur"
         dx="0.000000"
         dy="0.000000"
         id="feOffset94" /><feComposite
         result="comp1"
         operator="in"
         in="flood"
         in2="offset"
         id="feComposite95" /><feComposite
         result="comp2"
         operator="over"
         in="SourceGraphic"
         in2="comp1"
         id="feComposite96" /></filter></defs><g
     id="g8"
     transform="translate(-76.246651,2.4529604)"><g
       id="g100"
       transform="matrix(1.2325781,0,0,1.2325781,-150.29156,22.671745)"><path
         id="path11"
         style="opacity:1;fill:#7fcef7;fill-opacity:1;stroke-width:7.5258;stroke-linecap:round;stroke-linejoin:round;filter:url(#filter94)"
         d="m 189.564,-14.728516 a 2.5742207,3.3529383 0 0 0 -2.57572,3.353706 v 33.905575 a 2.574233,3.3529541 0 0 0 2.57572,3.353706 h 23.07428 V -8.2960301 h -0.0254 v -1.1464995 l -5.31718,-5.2859864 z" /><path
         id="path49"
         style="opacity:1;fill:#bde6fb;fill-opacity:1;stroke-width:9.15681;stroke-linecap:round;stroke-linejoin:round;filter:url(#filter96)"
         d="m 212.18968,-9.9350854 -4.76368,4.7636706 h 25.09376 v -2.246093 a 2.5639,2.5163627 0 0 0 -2.56446,-2.5175776 z m -22.6375,4.7638676 h 42.96703 V 23.320572 a 2.5639,2.5639 0 0 1 -2.5639,2.5639 H 189.55219 A 2.563912,2.563912 0 0 1 186.98828,23.32056 V -2.6073178 a 2.5639,2.5639 0 0 1 2.5639,-2.5639 z" /></g><g
       id="g7"
       style="fill:#0e9ce4;fill-opacity:1"
       transform="matrix(0.86455368,0,0,0.86455368,57.610887,-24.952892)"><path
         d="m 65.43555,67.84939 6.85723,6.85721 c -0.18742,0.3917 -0.29237,0.8303 -0.29237,1.2934 0,1.6569 1.34319,3 2.99999,3 1.6569,0 3,-1.3431 3,-3 0,-1.6568 -1.3431,-2.99996 -3,-2.99996 -0.4631,0 -0.9018,0.10496 -1.2934,0.29237 L 66.84976,66.43518 80.6925,69.6923 c 0.791,0.18611 1.3907,0.83228 1.5175,1.63491 l 0.8647,5.47659 c 0.0329,0.2088 0.1312,0.4017 0.2806,0.5512 l 1.2309,1.2308 c 0.781,0.7811 0.781,2.0474 0,2.8284 l -4.1716,4.1716 c -0.781,0.7811 -2.0474,0.7811 -2.8284,0 L 76.3553,84.355 C 76.2059,84.2055 76.013,84.1073 75.8042,84.0743 l -5.47663,-0.8647 c -0.80262,-0.1267 -1.44879,-0.7265 -1.63491,-1.5175 z"
         fill="#000000"
         id="path1"
         style="fill:#0e9ce4;fill-opacity:1" /><path
         d="m 76.0004,76 c 0,0.5523 -0.4477,1 -1,1 -0.5523,0 -1,-0.4477 -1,-1 0,-0.5522 0.4477,-1 1,-1 0.5523,0 1,0.4478 1,1 z"
         fill="#000000"
         id="path2-5"
         style="fill:#0e9ce4;fill-opacity:1" /></g></g></svg>
