<?xml version="1.0" encoding="UTF-8" standalone="no"?>
<svg
   version="1.1"
   viewBox="0 0 64 64"
   id="svg7"
   sodipodi:docname="folder-blender.svg"
   xml:space="preserve"
   inkscape:version="1.4.3 (0d15f75042, 2025-12-25)"
   xmlns:inkscape="http://www.inkscape.org/namespaces/inkscape"
   xmlns:sodipodi="http://sodipodi.sourceforge.net/DTD/sodipodi-0.dtd"
   xmlns="http://www.w3.org/2000/svg"
   xmlns:svg="http://www.w3.org/2000/svg"><sodipodi:namedview
     id="namedview7"
     pagecolor="#505050"
     bordercolor="#eeeeee"
     borderopacity="1"
     inkscape:showpageshadow="0"
     inkscape:pageopacity="0"
     inkscape:pagecheckerboard="0"
     inkscape:deskcolor="#505050"
     inkscape:current-layer="svg7" /><defs
     id="defs2"><style
       id="current-color-scheme"
       type="text/css">.ColorScheme-Text {
        color:#232629;
      }
      .ColorScheme-Highlight {
        color:#3daee9;
      }</style><linearGradient
       id="a"
       x1="445.28"
       x2="445.28"
       y1="179.28"
       y2="200.07"
       gradientTransform="matrix(1.4723 0 0 1.4432 -625.56 -239.75)"
       gradientUnits="userSpaceOnUse"><stop
         stop-opacity=".15"
         offset="0"
         id="stop1" /><stop
         stop-opacity="0"
         offset="1"
         id="stop2" /></linearGradient><inkscape:path-effect
       effect="fillet_chamfer"
       id="path-effect10"
       is_visible="true"
       lpeversion="1"
       nodesatellites_param="F,0,0,1,0,0,0,1 @ F,0,0,1,0,2.5639,0,1 @ F,0,0,1,0,0,0,1 @ F,0,0,1,0,0,0,1"
       radius="0"
       unit="px"
       method="auto"
       mode="F"
       chamfer_steps="1"
       flexible="false"
       use_knot_distance="true"
       apply_no_radius="true"
       apply_with_radius="true"
       only_selected="false"
       hide_knots="false" /><inkscape:path-effect
       effect="fillet_chamfer"
       id="path-effect9"
       is_visible="true"
       lpeversion="1"
       nodesatellites_param="F,0,0,1,0,2.5639,0,1 @ F,0,0,1,0,0,0,1 @ F,0,0,1,0,2.5639,0,1 @ F,0,0,1,0,2.563912,0,1"
       radius="0"
       unit="px"
       method="auto"
       mode="F"
       chamfer_steps="1"
       flexible="false"
       use_knot_distance="true"
       apply_no_radius="true"
       apply_with_radius="true"
       only_selected="false"
       hide_knots="false" /><inkscape:path-effect
       effect="fillet_chamfer"
       id="path-effect7"
       is_visible="true"
       lpeversion="1"
       nodesatellites_param="F,0,0,1,0,2.5639,0,1 @ F,0,0,1,0,0,0,1 @ F,0,0,1,0,2.5639,0,1 @ F,0,0,1,0,2.563912,0,1"
       radius="0"
       unit="px"
       method="auto"
       mode="F"
       chamfer_steps="1"
       flexible="false"
       use_knot_distance="true"
       apply_no_radius="true"
       apply_with_radius="true"
       only_selected="false"
       hide_knots="false" /><style
       id="current-color-scheme-9"
       type="text/css">.ColorScheme-Text {
      color:#333333;
    }
    .ColorScheme-Highlight {
      color:#60c0f0;
    }</style><linearGradient
       id="linearGradient946"
       x1="445.28"
       x2="445.28"
       y1="181.8"
       y2="200.07"
       gradientTransform="matrix(1.4724 0 0 1.4432 -625.58 -239.75)"
       gradientUnits="userSpaceOnUse"><stop
         stop-color="#ffffff"
         stop-opacity="0"
         offset="0"
         id="stop1-2" /><stop
         stop-color="#ffffff"
         offset="1"
         id="stop2-0" /></linearGradient><filter
       style="color-interpolation-filters:sRGB;"
       inkscape:label="Drop Shadow"
       id="filter94"
       x="-0.093567251"
       y="-0.059094396"
       width="1.1871345"
       height="1.1181888"><feFlood
         result="flood"
         in="SourceGraphic"
         flood-opacity="0.196078"
         flood-color="rgb(0,0,0)"
         id="feFlood93" /><feGaussianBlur
         result="blur"
         in="SourceGraphic"
         stdDeviation="1.000000"
         id="feGaussianBlur93" /><feOffset
         result="offset"
         in="blur"
         dx="0.000000"
         dy="0.000000"
         id="feOffset93" /><feComposite
         result="comp1"
         operator="in"
         in="flood"
         in2="offset"
         id="feComposite93" /><feComposite
         result="comp2"
         operator="over"
         in="SourceGraphic"
         in2="comp1"
         id="feComposite94" /></filter><filter
       style="color-interpolation-filters:sRGB;"
       inkscape:label="Drop Shadow"
       id="filter96"
       x="-0.052710783"
       y="-0.067002503"
       width="1.1054216"
       height="1.134005"><feFlood
         result="flood"
         in="SourceGraphic"
         flood-opacity="0.196078"
         flood-color="rgb(0,0,0)"
         id="feFlood94" /><feGaussianBlur
         result="blur"
         in="SourceGraphic"
         stdDeviation="1.000000"
         id="feGaussianBlur94" /><feOffset
         result="offset"
         in="blur"
         dx="0.000000"
         dy="0.000000"
         id="feOffset94" /><feComposite
         result="comp1"
         operator="in"
         in="flood"
         in2="offset"
         id="feComposite95" /><feComposite
         result="comp2"
         operator="over"
         in="SourceGraphic"
         in2="comp1"
         id="feComposite96" /></filter><filter
       style="color-interpolation-filters:sRGB"
       inkscape:label="Drop Shadow"
       id="filter94-2"
       x="-0.093567251"
       y="-0.059094396"
       width="1.1871345"
       height="1.1181888"><feFlood
         result="flood"
         in="SourceGraphic"
         flood-opacity="0.196078"
         flood-color="rgb(0,0,0)"
         id="feFlood93-9" /><feGaussianBlur
         result="blur"
         in="SourceGraphic"
         stdDeviation="1.000000"
         id="feGaussianBlur93-1" /><feOffset
         result="offset"
         in="blur"
         dx="0.000000"
         dy="0.000000"
         id="feOffset93-2" /><feComposite
         result="comp1"
         operator="in"
         in="flood"
         in2="offset"
         id="feComposite93-7" /><feComposite
         result="comp2"
         operator="over"
         in="SourceGraphic"
         in2="comp1"
         id="feComposite94-0" /></filter><filter
       style="color-interpolation-filters:sRGB"
       inkscape:label="Drop Shadow"
       id="filter3"
       x="-0.04276453"
       y="-0.054359614"
       width="1.0855291"
       height="1.1087192"><feFlood
         result="flood"
         in="SourceGraphic"
         flood-opacity="0.196078"
         flood-color="rgb(0,0,0)"
         id="feFlood2" /><feGaussianBlur
         result="blur"
         in="SourceGraphic"
         stdDeviation="1.000000"
         id="feGaussianBlur2" /><feOffset
         result="offset"
         in="blur"
         dx="0.000000"
         dy="0.000000"
         id="feOffset2" /><feComposite
         result="comp1"
         operator="in"
         in="flood"
         in2="offset"
         id="feComposite2" /><feComposite
         result="comp2"
         operator="over"
         in="SourceGraphic"
         in2="comp1"
         id="feComposite3" /></filter></defs><path
     id="path11"
     style="fill:#cc8b5a;fill-opacity:1;stroke-width:7.5258;stroke-linecap:round;stroke-linejoin:round;filter:url(#filter94-2)"
     d="m 189.564,-14.728516 a 2.5742207,3.3529383 0 0 0 -2.57572,3.353706 v 33.905575 a 2.574233,3.3529541 0 0 0 2.57572,3.353706 h 23.07428 V -8.2960301 h -0.0254 v -1.1464995 l -5.31718,-5.2859864 z"
     transform="matrix(1.2325781,0,0,1.2325781,-226.25541,25.124705)" /><path
     id="path49"
     style="fill:#f8a96d;fill-opacity:1;stroke-width:11.2865;stroke-linecap:round;stroke-linejoin:round;filter:url(#filter3)"
     d="m 35.277153,12.850748 -5.871085,5.871094 H 7.374818 a 3.160207,3.160207 0 0 0 -3.160158,3.154297 3.160207,3.160207 0 0 0 0,0.0059 v 31.958985 a 3.1602218,3.1602218 0 0 0 0,0.0078 3.1602218,3.1602218 0 0 0 3.160158,3.152344 h 49.800775 a 3.160207,3.160207 0 0 0 3.16016,-3.154297 3.160207,3.160207 0 0 0 0,-0.0059 V 18.721842 15.954264 a 3.160207,3.1016136 0 0 0 0,-0.06641 3.160207,3.1016136 0 0 0 -3.16016,-3.03711 z" /><path
     d="m 44.780863,32.122012 a 1.3636247,1.3636247 0 0 0 -1.36362,1.363625 1.3636247,1.3636247 0 0 0 0.43181,0.909083 h -0.0909 l 3.18179,3.18179 H 36.485488 a 1.3636247,1.3636247 0 0 0 -1.363625,1.363626 1.3636247,1.3636247 0 0 0 1.363625,1.363624 h 4.999955 l -5.818131,5.818132 a 1.3636247,1.3636247 0 0 0 -0.545449,1.0909 1.3636247,1.3636247 0 0 0 1.363625,1.363625 1.3636247,1.3636247 0 0 0 0.999991,-0.454542 l 3.090874,-3.090883 a 7.2726652,7.2726652 0 0 0 7.27268,7.090849 7.2726652,7.2726652 0 0 0 7.27266,-7.272665 7.2726652,7.2726652 0 0 0 -2.72725,-5.727224 l -6.63631,-6.545398 a 1.3636247,1.3636247 0 0 0 -0.97727,-0.454542 z m 3.06817,8.181748 a 4.5454157,4.5454157 0 0 1 2.72724,0.909083 l 0.81818,0.818176 a 4.5454157,4.5454157 0 0 1 0.99999,2.818157 4.5454157,4.5454157 0 0 1 -4.54541,4.545416 4.5454157,4.5454157 0 0 1 -4.54543,-4.545416 4.5454157,4.5454157 0 0 1 4.54543,-4.545416 z m 0,2.72725 a 1.8181663,1.8181663 0 0 0 -1.81817,1.818166 1.8181663,1.8181663 0 0 0 1.81817,1.818166 1.8181663,1.8181663 0 0 0 1.81815,-1.818166 1.8181663,1.8181663 0 0 0 -1.81815,-1.818166 z"
     fill="#000000"
     opacity=".15"
     id="path7"
     style="opacity:1;fill:#f6822a;fill-opacity:1;stroke-width:0.909083" /></svg>
