<?xml version="1.0" encoding="UTF-8" standalone="no"?>
<svg
   width="64"
   height="64"
   version="1.1"
   viewBox="0 0 64 64"
   id="svg6"
   sodipodi:docname="folder-table.svg"
   xml:space="preserve"
   inkscape:version="1.4.2 (ebf0e940d0, 2025-05-08)"
   xmlns:inkscape="http://www.inkscape.org/namespaces/inkscape"
   xmlns:sodipodi="http://sodipodi.sourceforge.net/DTD/sodipodi-0.dtd"
   xmlns="http://www.w3.org/2000/svg"
   xmlns:svg="http://www.w3.org/2000/svg"><sodipodi:namedview
     id="namedview6"
     pagecolor="#505050"
     bordercolor="#eeeeee"
     borderopacity="1"
     inkscape:showpageshadow="0"
     inkscape:pageopacity="0"
     inkscape:pagecheckerboard="0"
     inkscape:deskcolor="#505050"
     inkscape:zoom="7.9860634"
     inkscape:cx="22.038393"
     inkscape:cy="14.775741"
     inkscape:window-width="1536"
     inkscape:window-height="807"
     inkscape:window-x="0"
     inkscape:window-y="0"
     inkscape:window-maximized="1"
     inkscape:current-layer="svg6" /><defs
     id="defs2"><inkscape:path-effect
       effect="fillet_chamfer"
       id="path-effect10"
       is_visible="true"
       lpeversion="1"
       nodesatellites_param="F,0,0,1,0,0,0,1 @ F,0,0,1,0,2.5639,0,1 @ F,0,0,1,0,0,0,1 @ F,0,0,1,0,0,0,1"
       radius="0"
       unit="px"
       method="auto"
       mode="F"
       chamfer_steps="1"
       flexible="false"
       use_knot_distance="true"
       apply_no_radius="true"
       apply_with_radius="true"
       only_selected="false"
       hide_knots="false" /><inkscape:path-effect
       effect="fillet_chamfer"
       id="path-effect9"
       is_visible="true"
       lpeversion="1"
       nodesatellites_param="F,0,0,1,0,2.5639,0,1 @ F,0,0,1,0,0,0,1 @ F,0,0,1,0,2.5639,0,1 @ F,0,0,1,0,2.563912,0,1"
       radius="0"
       unit="px"
       method="auto"
       mode="F"
       chamfer_steps="1"
       flexible="false"
       use_knot_distance="true"
       apply_no_radius="true"
       apply_with_radius="true"
       only_selected="false"
       hide_knots="false" /><inkscape:path-effect
       effect="fillet_chamfer"
       id="path-effect7"
       is_visible="true"
       lpeversion="1"
       nodesatellites_param="F,0,0,1,0,2.5639,0,1 @ F,0,0,1,0,0,0,1 @ F,0,0,1,0,2.5639,0,1 @ F,0,0,1,0,2.563912,0,1"
       radius="0"
       unit="px"
       method="auto"
       mode="F"
       chamfer_steps="1"
       flexible="false"
       use_knot_distance="true"
       apply_no_radius="true"
       apply_with_radius="true"
       only_selected="false"
       hide_knots="false" /><style
       id="current-color-scheme"
       type="text/css">.ColorScheme-Text {
      color:#333333;
    }
    .ColorScheme-Highlight {
      color:#60c0f0;
    }</style><linearGradient
       id="linearGradient946"
       x1="445.28"
       x2="445.28"
       y1="181.8"
       y2="200.07"
       gradientTransform="matrix(1.4724 0 0 1.4432 -625.58 -239.75)"
       gradientUnits="userSpaceOnUse"><stop
         stop-color="#ffffff"
         stop-opacity="0"
         offset="0"
         id="stop1" /><stop
         stop-color="#ffffff"
         offset="1"
         id="stop2" /></linearGradient><filter
       style="color-interpolation-filters:sRGB;"
       inkscape:label="Drop Shadow"
       id="filter94"
       x="-0.093567251"
       y="-0.059094396"
       width="1.1871345"
       height="1.1181888"><feFlood
         result="flood"
         in="SourceGraphic"
         flood-opacity="0.196078"
         flood-color="rgb(0,0,0)"
         id="feFlood93" /><feGaussianBlur
         result="blur"
         in="SourceGraphic"
         stdDeviation="1.000000"
         id="feGaussianBlur93" /><feOffset
         result="offset"
         in="blur"
         dx="0.000000"
         dy="0.000000"
         id="feOffset93" /><feComposite
         result="comp1"
         operator="in"
         in="flood"
         in2="offset"
         id="feComposite93" /><feComposite
         result="comp2"
         operator="over"
         in="SourceGraphic"
         in2="comp1"
         id="feComposite94" /></filter><filter
       style="color-interpolation-filters:sRGB;"
       inkscape:label="Drop Shadow"
       id="filter96"
       x="-0.052710783"
       y="-0.067002503"
       width="1.1054216"
       height="1.134005"><feFlood
         result="flood"
         in="SourceGraphic"
         flood-opacity="0.196078"
         flood-color="rgb(0,0,0)"
         id="feFlood94" /><feGaussianBlur
         result="blur"
         in="SourceGraphic"
         stdDeviation="1.000000"
         id="feGaussianBlur94" /><feOffset
         result="offset"
         in="blur"
         dx="0.000000"
         dy="0.000000"
         id="feOffset94" /><feComposite
         result="comp1"
         operator="in"
         in="flood"
         in2="offset"
         id="feComposite95" /><feComposite
         result="comp2"
         operator="over"
         in="SourceGraphic"
         in2="comp1"
         id="feComposite96" /></filter></defs><g
     id="g100"
     transform="matrix(1.2325781,0,0,1.2325781,-226.53821,25.124705)"><path
       id="path11"
       style="opacity:1;fill:#7fcef7;fill-opacity:1;stroke-width:7.5258;stroke-linecap:round;stroke-linejoin:round;filter:url(#filter94)"
       d="m 189.564,-14.728516 a 2.5742207,3.3529383 0 0 0 -2.57572,3.353706 v 33.905575 a 2.574233,3.3529541 0 0 0 2.57572,3.353706 h 23.07428 V -8.2960301 h -0.0254 v -1.1464995 l -5.31718,-5.2859864 z" /><path
       id="path49"
       style="opacity:1;fill:#bde6fb;fill-opacity:1;stroke-width:9.15681;stroke-linecap:round;stroke-linejoin:round;filter:url(#filter96)"
       d="m 212.18968,-9.9350854 -4.76368,4.7636706 h 25.09376 v -2.246093 a 2.5639,2.5163627 0 0 0 -2.56446,-2.5175776 z m -22.6375,4.7638676 h 42.96703 V 23.320572 a 2.5639,2.5639 0 0 1 -2.5639,2.5639 H 189.55219 A 2.563912,2.563912 0 0 1 186.98828,23.32056 V -2.6073178 a 2.5639,2.5639 0 0 1 2.5639,-2.5639 z" /></g><path
     fill-rule="evenodd"
     clip-rule="evenodd"
     d="M 35,34.222222 C 35,32.994922 35.994922,32 37.222222,32 H 52.777778 C 54.005111,32 55,32.994922 55,34.222222 V 49.777778 C 55,51.005111 54.005111,52 52.777778,52 H 37.222222 C 35.994922,52 35,51.005111 35,49.777778 Z m 10,14.444445 c -0.613667,0 -1.111111,-0.497445 -1.111111,-1.111111 v -10 c 0,-0.613645 0.497444,-1.111112 1.111111,-1.111112 0.613667,0 1.111111,0.497467 1.111111,1.111112 v 10 c 0,0.613666 -0.497444,1.111111 -1.111111,1.111111 z m -6.111111,-1.111111 c 0,0.613666 0.497467,1.111111 1.111111,1.111111 0.613656,0 1.111111,-0.497445 1.111111,-1.111111 v -6.666667 c 0,-0.613667 -0.497455,-1.111111 -1.111111,-1.111111 -0.613644,0 -1.111111,0.497444 -1.111111,1.111111 z M 50,48.666667 c -0.613667,0 -1.111111,-0.497445 -1.111111,-1.111111 V 43.111111 C 48.888889,42.497444 49.386333,42 50,42 c 0.613667,0 1.111111,0.497444 1.111111,1.111111 v 4.444445 c 0,0.613666 -0.497444,1.111111 -1.111111,1.111111 z"
     fill="#000000"
     id="path1"
     style="stroke-width:1.11111;fill:#0e9ce4;fill-opacity:1" /><path
     fill-rule="evenodd"
     clip-rule="evenodd"
     d="M 35,34.222222 C 35,32.994922 35.994922,32 37.222222,32 H 52.777778 C 54.005111,32 55,32.994922 55,34.222222 V 49.777778 C 55,51.005111 54.005111,52 52.777778,52 H 37.222222 C 35.994922,52 35,51.005111 35,49.777778 Z m 10,14.444445 c -0.613667,0 -1.111111,-0.497445 -1.111111,-1.111111 v -10 c 0,-0.613645 0.497444,-1.111112 1.111111,-1.111112 0.613667,0 1.111111,0.497467 1.111111,1.111112 v 10 c 0,0.613666 -0.497444,1.111111 -1.111111,1.111111 z m -6.111111,-1.111111 c 0,0.613666 0.497467,1.111111 1.111111,1.111111 0.613656,0 1.111111,-0.497445 1.111111,-1.111111 v -6.666667 c 0,-0.613667 -0.497455,-1.111111 -1.111111,-1.111111 -0.613644,0 -1.111111,0.497444 -1.111111,1.111111 z M 50,48.666667 c -0.613667,0 -1.111111,-0.497445 -1.111111,-1.111111 V 43.111111 C 48.888889,42.497444 49.386333,42 50,42 c 0.613667,0 1.111111,0.497444 1.111111,1.111111 v 4.444445 c 0,0.613666 -0.497444,1.111111 -1.111111,1.111111 z"
     fill="#000000"
     id="path2"
     style="stroke-width:1.11111;fill:#0e9ce4;fill-opacity:1" /></svg>
