<?xml version="1.0" encoding="UTF-8" standalone="no"?>
<svg
   width="64"
   height="64"
   version="1.1"
   viewBox="0 0 64 64"
   id="svg7"
   sodipodi:docname="folder-steam.svg"
   xml:space="preserve"
   inkscape:version="1.4.3 (0d15f75042, 2025-12-25)"
   xmlns:inkscape="http://www.inkscape.org/namespaces/inkscape"
   xmlns:sodipodi="http://sodipodi.sourceforge.net/DTD/sodipodi-0.dtd"
   xmlns="http://www.w3.org/2000/svg"
   xmlns:svg="http://www.w3.org/2000/svg"><sodipodi:namedview
     id="namedview7"
     pagecolor="#505050"
     bordercolor="#eeeeee"
     borderopacity="1"
     inkscape:showpageshadow="0"
     inkscape:pageopacity="0"
     inkscape:pagecheckerboard="0"
     inkscape:deskcolor="#505050"
     inkscape:zoom="5.0648804"
     inkscape:cx="51.630045"
     inkscape:cy="32.478556"
     inkscape:window-width="1536"
     inkscape:window-height="835"
     inkscape:window-x="0"
     inkscape:window-y="0"
     inkscape:window-maximized="1"
     inkscape:current-layer="svg7" /><defs
     id="defs2"><style
       id="current-color-scheme"
       type="text/css">.ColorScheme-Text {
      color:#333333;
    }
    .ColorScheme-Highlight {
      color:#60c0f0;
    }</style><linearGradient
       id="linearGradient946"
       x1="445.28"
       x2="445.28"
       y1="181.8"
       y2="200.07"
       gradientTransform="matrix(1.4724 0 0 1.4432 -625.58 -239.75)"
       gradientUnits="userSpaceOnUse"><stop
         stop-color="#ffffff"
         stop-opacity="0"
         offset="0"
         id="stop1" /><stop
         stop-color="#ffffff"
         offset="1"
         id="stop2" /></linearGradient><inkscape:path-effect
       effect="fillet_chamfer"
       id="path-effect10"
       is_visible="true"
       lpeversion="1"
       nodesatellites_param="F,0,0,1,0,0,0,1 @ F,0,0,1,0,2.5639,0,1 @ F,0,0,1,0,0,0,1 @ F,0,0,1,0,0,0,1"
       radius="0"
       unit="px"
       method="auto"
       mode="F"
       chamfer_steps="1"
       flexible="false"
       use_knot_distance="true"
       apply_no_radius="true"
       apply_with_radius="true"
       only_selected="false"
       hide_knots="false" /><inkscape:path-effect
       effect="fillet_chamfer"
       id="path-effect9"
       is_visible="true"
       lpeversion="1"
       nodesatellites_param="F,0,0,1,0,2.5639,0,1 @ F,0,0,1,0,0,0,1 @ F,0,0,1,0,2.5639,0,1 @ F,0,0,1,0,2.563912,0,1"
       radius="0"
       unit="px"
       method="auto"
       mode="F"
       chamfer_steps="1"
       flexible="false"
       use_knot_distance="true"
       apply_no_radius="true"
       apply_with_radius="true"
       only_selected="false"
       hide_knots="false" /><inkscape:path-effect
       effect="fillet_chamfer"
       id="path-effect7"
       is_visible="true"
       lpeversion="1"
       nodesatellites_param="F,0,0,1,0,2.5639,0,1 @ F,0,0,1,0,0,0,1 @ F,0,0,1,0,2.5639,0,1 @ F,0,0,1,0,2.563912,0,1"
       radius="0"
       unit="px"
       method="auto"
       mode="F"
       chamfer_steps="1"
       flexible="false"
       use_knot_distance="true"
       apply_no_radius="true"
       apply_with_radius="true"
       only_selected="false"
       hide_knots="false" /><style
       id="current-color-scheme-6"
       type="text/css">.ColorScheme-Text {
      color:#333333;
    }
    .ColorScheme-Highlight {
      color:#60c0f0;
    }</style><filter
       style="color-interpolation-filters:sRGB;"
       inkscape:label="Drop Shadow"
       id="filter94"
       x="-0.093567251"
       y="-0.059094396"
       width="1.1871345"
       height="1.1181888"><feFlood
         result="flood"
         in="SourceGraphic"
         flood-opacity="0.196078"
         flood-color="rgb(0,0,0)"
         id="feFlood93" /><feGaussianBlur
         result="blur"
         in="SourceGraphic"
         stdDeviation="1.000000"
         id="feGaussianBlur93" /><feOffset
         result="offset"
         in="blur"
         dx="0.000000"
         dy="0.000000"
         id="feOffset93" /><feComposite
         result="comp1"
         operator="in"
         in="flood"
         in2="offset"
         id="feComposite93" /><feComposite
         result="comp2"
         operator="over"
         in="SourceGraphic"
         in2="comp1"
         id="feComposite94" /></filter><filter
       style="color-interpolation-filters:sRGB;"
       inkscape:label="Drop Shadow"
       id="filter96"
       x="-0.052710783"
       y="-0.067002503"
       width="1.1054216"
       height="1.134005"><feFlood
         result="flood"
         in="SourceGraphic"
         flood-opacity="0.196078"
         flood-color="rgb(0,0,0)"
         id="feFlood94" /><feGaussianBlur
         result="blur"
         in="SourceGraphic"
         stdDeviation="1.000000"
         id="feGaussianBlur94" /><feOffset
         result="offset"
         in="blur"
         dx="0.000000"
         dy="0.000000"
         id="feOffset94" /><feComposite
         result="comp1"
         operator="in"
         in="flood"
         in2="offset"
         id="feComposite95" /><feComposite
         result="comp2"
         operator="over"
         in="SourceGraphic"
         in2="comp1"
         id="feComposite96" /></filter></defs><g
     id="g7"
     transform="translate(-69.487611,5.0821494)"><g
       id="g100"
       transform="matrix(1.2325781,0,0,1.2325781,-157.0506,20.042556)"><path
         id="path11"
         style="opacity:1;fill:#f77fdb;fill-opacity:1;stroke-width:7.5258;stroke-linecap:round;stroke-linejoin:round;filter:url(#filter94)"
         d="m 189.564,-14.728516 a 2.5742207,3.3529383 0 0 0 -2.57572,3.353706 v 33.905575 a 2.574233,3.3529541 0 0 0 2.57572,3.353706 h 23.07428 V -8.2960301 h -0.0254 v -1.1464995 l -5.31718,-5.2859864 z" /><path
         id="path49"
         style="opacity:1;fill:#fbbde6;fill-opacity:1;stroke-width:9.15681;stroke-linecap:round;stroke-linejoin:round;filter:url(#filter96)"
         d="m 212.18968,-9.9350854 -4.76368,4.7636706 h 25.09376 v -2.246093 a 2.5639,2.5163627 0 0 0 -2.56446,-2.5175776 z m -22.6375,4.7638676 h 42.96703 V 23.320572 a 2.5639,2.5639 0 0 1 -2.5639,2.5639 H 189.55219 A 2.563912,2.563912 0 0 1 186.98828,23.32056 V -2.6073178 a 2.5639,2.5639 0 0 1 2.5639,-2.5639 z" /></g><path
       d="m 123.02352,34.156533 a 5.0000312,5.0000312 0 0 0 -7.07111,0 5.0000312,5.0000312 0 0 0 -1.35687,2.535365 l -4.02351,4.023513 a 3.3332986,3.3332986 0 0 0 -1.04848,-0.401667 l -1.68961,-5.119164 a 3.3332986,3.3332986 0 0 0 -0.13111,-4.57346 3.3332986,3.3332986 0 0 0 -4.714,-1e-6 3.3332986,3.3332986 0 0 0 0,4.713997 3.3332986,3.3332986 0 0 0 1.71365,0.912635 l 1.69068,5.122581 a 3.3332986,3.3332986 0 0 0 0.13111,4.571221 3.3332986,3.3332986 0 0 0 4.71399,0 3.3332986,3.3332986 0 0 0 0.9748,-2.27303 l 5.64271,-1.255631 a 5.0000312,5.0000312 0 0 0 5.16736,-1.185335 5.0000312,5.0000312 0 0 0 1e-5,-7.071112 z m -1.1785,1.178499 a 3.3332986,3.3332986 0 0 1 0,4.713997 3.3332986,3.3332986 0 0 1 -4.714,0 3.3332986,3.3332986 0 0 1 0,-4.713996 3.3332986,3.3332986 0 0 1 4.714,-1e-6 z m -1.1785,1.1785 a 1.6666493,1.6666493 0 0 0 -2.357,0 1.6666493,1.6666493 0 0 0 0,2.356997 1.6666493,1.6666493 0 0 0 2.357,1e-6 1.6666493,1.6666493 0 0 0 0,-2.356998 z M 107.1139,31.210169 a 2.499974,2.499974 0 0 1 0.39933,3.011831 l -0.58459,-1.770048 c -0.28679,-0.868919 -1.21963,-1.343256 -2.09112,-1.064549 -0.87154,0.278686 -1.34216,1.201514 -1.05533,2.070405 l 0.60186,1.821841 a 2.499974,2.499974 0 0 1 -0.8056,-0.533995 2.499974,2.499974 0 0 1 0,-3.535497 2.499974,2.499974 0 0 1 3.5355,0 z m 3.53544,10.60655 a 2.499974,2.499974 0 0 1 0,3.535497 2.499974,2.499974 0 0 1 -3.5355,0 2.499974,2.499974 0 0 1 -0.40051,-3.01301 l 0.58459,1.770047 c 0.28679,0.868919 1.21846,1.344423 2.08999,1.065681 0.87155,-0.278697 1.34327,-1.202634 1.0565,-2.071583 l -0.60192,-1.82414 a 2.499974,2.499974 0 0 1 0.80675,0.537448 z"
       opacity="0.15"
       id="path7"
       style="opacity:1;fill:#e40ec4;fill-opacity:1;stroke-width:0.833325" /></g></svg>
