<?xml version="1.0" encoding="UTF-8" standalone="no"?>
<svg
   width="64"
   height="64"
   version="1.1"
   viewBox="0 0 64 64"
   id="svg10"
   sodipodi:docname="default-folder-torrent.svg"
   xml:space="preserve"
   inkscape:version="1.4.3 (0d15f75042, 2025-12-25)"
   xmlns:inkscape="http://www.inkscape.org/namespaces/inkscape"
   xmlns:sodipodi="http://sodipodi.sourceforge.net/DTD/sodipodi-0.dtd"
   xmlns="http://www.w3.org/2000/svg"
   xmlns:svg="http://www.w3.org/2000/svg"><sodipodi:namedview
     id="namedview10"
     pagecolor="#505050"
     bordercolor="#eeeeee"
     borderopacity="1"
     inkscape:showpageshadow="0"
     inkscape:pageopacity="0"
     inkscape:pagecheckerboard="0"
     inkscape:deskcolor="#505050"
     inkscape:zoom="5.707417"
     inkscape:cx="31.625514"
     inkscape:cy="46.868837"
     inkscape:window-width="1536"
     inkscape:window-height="835"
     inkscape:window-x="0"
     inkscape:window-y="0"
     inkscape:window-maximized="1"
     inkscape:current-layer="svg10" /><defs
     id="defs2"><style
       id="current-color-scheme"
       type="text/css">.ColorScheme-Text {
      color:#333333;
    }
    .ColorScheme-Highlight {
      color:#60c0f0;
    }</style><linearGradient
       id="linearGradient946"
       x1="445.28"
       x2="445.28"
       y1="181.8"
       y2="200.07"
       gradientTransform="matrix(1.4724 0 0 1.4432 -625.58 -239.75)"
       gradientUnits="userSpaceOnUse"><stop
         stop-color="#ffffff"
         stop-opacity="0"
         offset="0"
         id="stop1" /><stop
         stop-color="#ffffff"
         offset="1"
         id="stop2" /></linearGradient><inkscape:path-effect
       effect="fillet_chamfer"
       id="path-effect10"
       is_visible="true"
       lpeversion="1"
       nodesatellites_param="F,0,0,1,0,0,0,1 @ F,0,0,1,0,2.5639,0,1 @ F,0,0,1,0,0,0,1 @ F,0,0,1,0,0,0,1"
       radius="0"
       unit="px"
       method="auto"
       mode="F"
       chamfer_steps="1"
       flexible="false"
       use_knot_distance="true"
       apply_no_radius="true"
       apply_with_radius="true"
       only_selected="false"
       hide_knots="false" /><inkscape:path-effect
       effect="fillet_chamfer"
       id="path-effect9"
       is_visible="true"
       lpeversion="1"
       nodesatellites_param="F,0,0,1,0,2.5639,0,1 @ F,0,0,1,0,0,0,1 @ F,0,0,1,0,2.5639,0,1 @ F,0,0,1,0,2.563912,0,1"
       radius="0"
       unit="px"
       method="auto"
       mode="F"
       chamfer_steps="1"
       flexible="false"
       use_knot_distance="true"
       apply_no_radius="true"
       apply_with_radius="true"
       only_selected="false"
       hide_knots="false" /><inkscape:path-effect
       effect="fillet_chamfer"
       id="path-effect7"
       is_visible="true"
       lpeversion="1"
       nodesatellites_param="F,0,0,1,0,2.5639,0,1 @ F,0,0,1,0,0,0,1 @ F,0,0,1,0,2.5639,0,1 @ F,0,0,1,0,2.563912,0,1"
       radius="0"
       unit="px"
       method="auto"
       mode="F"
       chamfer_steps="1"
       flexible="false"
       use_knot_distance="true"
       apply_no_radius="true"
       apply_with_radius="true"
       only_selected="false"
       hide_knots="false" /><style
       id="current-color-scheme-6"
       type="text/css">.ColorScheme-Text {
      color:#333333;
    }
    .ColorScheme-Highlight {
      color:#60c0f0;
    }</style><filter
       style="color-interpolation-filters:sRGB;"
       inkscape:label="Drop Shadow"
       id="filter94"
       x="-0.093567251"
       y="-0.059094396"
       width="1.1871345"
       height="1.1181888"><feFlood
         result="flood"
         in="SourceGraphic"
         flood-opacity="0.196078"
         flood-color="rgb(0,0,0)"
         id="feFlood93" /><feGaussianBlur
         result="blur"
         in="SourceGraphic"
         stdDeviation="1.000000"
         id="feGaussianBlur93" /><feOffset
         result="offset"
         in="blur"
         dx="0.000000"
         dy="0.000000"
         id="feOffset93" /><feComposite
         result="comp1"
         operator="in"
         in="flood"
         in2="offset"
         id="feComposite93" /><feComposite
         result="comp2"
         operator="over"
         in="SourceGraphic"
         in2="comp1"
         id="feComposite94" /></filter><filter
       style="color-interpolation-filters:sRGB;"
       inkscape:label="Drop Shadow"
       id="filter96"
       x="-0.052710783"
       y="-0.067002503"
       width="1.1054216"
       height="1.134005"><feFlood
         result="flood"
         in="SourceGraphic"
         flood-opacity="0.196078"
         flood-color="rgb(0,0,0)"
         id="feFlood94" /><feGaussianBlur
         result="blur"
         in="SourceGraphic"
         stdDeviation="1.000000"
         id="feGaussianBlur94" /><feOffset
         result="offset"
         in="blur"
         dx="0.000000"
         dy="0.000000"
         id="feOffset94" /><feComposite
         result="comp1"
         operator="in"
         in="flood"
         in2="offset"
         id="feComposite95" /><feComposite
         result="comp2"
         operator="over"
         in="SourceGraphic"
         in2="comp1"
         id="feComposite96" /></filter><filter
       style="color-interpolation-filters:sRGB;"
       inkscape:label="Drop Shadow"
       id="filter3"
       x="-0.04276453"
       y="-0.054359614"
       width="1.0855291"
       height="1.1087192"><feFlood
         result="flood"
         in="SourceGraphic"
         flood-opacity="0.196078"
         flood-color="rgb(0,0,0)"
         id="feFlood2" /><feGaussianBlur
         result="blur"
         in="SourceGraphic"
         stdDeviation="1.000000"
         id="feGaussianBlur2" /><feOffset
         result="offset"
         in="blur"
         dx="0.000000"
         dy="0.000000"
         id="feOffset2" /><feComposite
         result="comp1"
         operator="in"
         in="flood"
         in2="offset"
         id="feComposite2" /><feComposite
         result="comp2"
         operator="over"
         in="SourceGraphic"
         in2="comp1"
         id="feComposite3" /></filter><inkscape:path-effect
       effect="fillet_chamfer"
       id="path-effect10-5"
       is_visible="true"
       lpeversion="1"
       nodesatellites_param="F,0,0,1,0,0,0,1 @ F,0,0,1,0,2.5639,0,1 @ F,0,0,1,0,0,0,1 @ F,0,0,1,0,0,0,1"
       radius="0"
       unit="px"
       method="auto"
       mode="F"
       chamfer_steps="1"
       flexible="false"
       use_knot_distance="true"
       apply_no_radius="true"
       apply_with_radius="true"
       only_selected="false"
       hide_knots="false" /><inkscape:path-effect
       effect="fillet_chamfer"
       id="path-effect9-6"
       is_visible="true"
       lpeversion="1"
       nodesatellites_param="F,0,0,1,0,2.5639,0,1 @ F,0,0,1,0,0,0,1 @ F,0,0,1,0,2.5639,0,1 @ F,0,0,1,0,2.563912,0,1"
       radius="0"
       unit="px"
       method="auto"
       mode="F"
       chamfer_steps="1"
       flexible="false"
       use_knot_distance="true"
       apply_no_radius="true"
       apply_with_radius="true"
       only_selected="false"
       hide_knots="false" /><inkscape:path-effect
       effect="fillet_chamfer"
       id="path-effect7-2"
       is_visible="true"
       lpeversion="1"
       nodesatellites_param="F,0,0,1,0,2.5639,0,1 @ F,0,0,1,0,0,0,1 @ F,0,0,1,0,2.5639,0,1 @ F,0,0,1,0,2.563912,0,1"
       radius="0"
       unit="px"
       method="auto"
       mode="F"
       chamfer_steps="1"
       flexible="false"
       use_knot_distance="true"
       apply_no_radius="true"
       apply_with_radius="true"
       only_selected="false"
       hide_knots="false" /><style
       id="current-color-scheme-9"
       type="text/css">.ColorScheme-Text {
      color:#333333;
    }
    .ColorScheme-Highlight {
      color:#60c0f0;
    }</style><filter
       style="color-interpolation-filters:sRGB;"
       inkscape:label="Drop Shadow"
       id="filter94-7"
       x="-0.093567251"
       y="-0.059094396"
       width="1.1871345"
       height="1.1181888"><feFlood
         result="flood"
         in="SourceGraphic"
         flood-opacity="0.196078"
         flood-color="rgb(0,0,0)"
         id="feFlood93-0" /><feGaussianBlur
         result="blur"
         in="SourceGraphic"
         stdDeviation="1.000000"
         id="feGaussianBlur93-9" /><feOffset
         result="offset"
         in="blur"
         dx="0.000000"
         dy="0.000000"
         id="feOffset93-3" /><feComposite
         result="comp1"
         operator="in"
         in="flood"
         in2="offset"
         id="feComposite93-6" /><feComposite
         result="comp2"
         operator="over"
         in="SourceGraphic"
         in2="comp1"
         id="feComposite94-06" /></filter><filter
       style="color-interpolation-filters:sRGB;"
       inkscape:label="Drop Shadow"
       id="filter96-2"
       x="-0.052710783"
       y="-0.067002503"
       width="1.1054216"
       height="1.134005"><feFlood
         result="flood"
         in="SourceGraphic"
         flood-opacity="0.196078"
         flood-color="rgb(0,0,0)"
         id="feFlood94-6" /><feGaussianBlur
         result="blur"
         in="SourceGraphic"
         stdDeviation="1.000000"
         id="feGaussianBlur94-1" /><feOffset
         result="offset"
         in="blur"
         dx="0.000000"
         dy="0.000000"
         id="feOffset94-8" /><feComposite
         result="comp1"
         operator="in"
         in="flood"
         in2="offset"
         id="feComposite95-7" /><feComposite
         result="comp2"
         operator="over"
         in="SourceGraphic"
         in2="comp1"
         id="feComposite96-9" /></filter><filter
       style="color-interpolation-filters:sRGB"
       inkscape:label="Drop Shadow"
       id="filter94-2"
       x="-0.093567251"
       y="-0.059094396"
       width="1.1871345"
       height="1.1181888"><feFlood
         result="flood"
         in="SourceGraphic"
         flood-opacity="0.196078"
         flood-color="rgb(0,0,0)"
         id="feFlood93-9" /><feGaussianBlur
         result="blur"
         in="SourceGraphic"
         stdDeviation="1.000000"
         id="feGaussianBlur93-1" /><feOffset
         result="offset"
         in="blur"
         dx="0.000000"
         dy="0.000000"
         id="feOffset93-2" /><feComposite
         result="comp1"
         operator="in"
         in="flood"
         in2="offset"
         id="feComposite93-7" /><feComposite
         result="comp2"
         operator="over"
         in="SourceGraphic"
         in2="comp1"
         id="feComposite94-0" /></filter><filter
       style="color-interpolation-filters:sRGB"
       inkscape:label="Drop Shadow"
       id="filter3-2"
       x="-0.04276453"
       y="-0.054359614"
       width="1.0855291"
       height="1.1087192"><feFlood
         result="flood"
         in="SourceGraphic"
         flood-opacity="0.196078"
         flood-color="rgb(0,0,0)"
         id="feFlood2-0" /><feGaussianBlur
         result="blur"
         in="SourceGraphic"
         stdDeviation="1.000000"
         id="feGaussianBlur2-2" /><feOffset
         result="offset"
         in="blur"
         dx="0.000000"
         dy="0.000000"
         id="feOffset2-3" /><feComposite
         result="comp1"
         operator="in"
         in="flood"
         in2="offset"
         id="feComposite2-7" /><feComposite
         result="comp2"
         operator="over"
         in="SourceGraphic"
         in2="comp1"
         id="feComposite3-5" /></filter></defs><g
     id="g3-9"
     transform="translate(0.28280195)"><path
       id="path11-2"
       style="fill:#72e1d3;fill-opacity:1;stroke-width:7.5258;stroke-linecap:round;stroke-linejoin:round;filter:url(#filter94-2)"
       d="m 189.564,-14.728516 a 2.5742207,3.3529383 0 0 0 -2.57572,3.353706 v 33.905575 a 2.574233,3.3529541 0 0 0 2.57572,3.353706 h 23.07428 V -8.2960301 h -0.0254 v -1.1464995 l -5.31718,-5.2859864 z"
       transform="matrix(1.2325781,0,0,1.2325781,-226.53821,25.124705)" /><path
       id="path49-2"
       style="fill:#b8f6f0;fill-opacity:1;stroke-width:11.2865;stroke-linecap:round;stroke-linejoin:round;filter:url(#filter3-2)"
       d="m 34.994352,12.850748 -5.871085,5.871094 H 7.0920169 a 3.160207,3.160207 0 0 0 -3.160158,3.154297 3.160207,3.160207 0 0 0 0,0.0059 v 31.958985 a 3.1602218,3.1602218 0 0 0 0,0.0078 3.1602218,3.1602218 0 0 0 3.160158,3.152344 H 56.892792 a 3.160207,3.160207 0 0 0 3.16016,-3.154297 3.160207,3.160207 0 0 0 0,-0.0059 V 18.721842 15.954264 a 3.160207,3.1016136 0 0 0 0,-0.06641 3.160207,3.1016136 0 0 0 -3.16016,-3.03711 z" /></g><path
     fill="#673398"
     opacity="1"
     d="m 45.149916,32.318603 h 0.0854 l -0.270106,0.0265 c 1.680891,0.0092 3.363771,0.418403 4.838111,1.232038 1.911943,1.042696 3.467053,2.726902 4.346889,4.720271 0.575303,1.300888 0.87851,2.725577 0.84806,4.149601 0.0079,2.310486 -0.858656,4.60177 -2.349545,6.362106 -2.15292,0.272757 -4.382639,0.438263 -6.503777,-0.125785 -1.258518,-0.313137 -2.377351,-1.124788 -3.093665,-2.202574 -0.727571,-1.287644 -0.478649,-3.06983 0.624293,-4.070817 0.767955,-0.69646 1.876193,-0.995031 2.889759,-0.76862 0.897051,0.183387 1.694136,0.767955 2.154244,1.557755 0.449518,-0.236341 0.895726,-0.478643 1.345909,-0.713664 -0.317117,-0.533599 -0.708375,-1.029457 -1.197613,-1.41542 -0.822905,-0.651439 -1.866262,-1.004961 -2.912269,-1.034091 -0.992381,-0.0119 -1.987413,0.284671 -2.803698,0.85137 -1.657721,1.126773 -2.477976,3.362447 -1.904658,5.288294 0.366103,1.306844 1.326044,2.380656 2.446202,3.108891 0.89109,0.572653 1.923197,0.883145 2.957948,1.070501 1.42204,0.251572 2.873869,0.158887 4.303853,0.0371 -0.143661,0.147631 -0.359482,0.139025 -0.548158,0.172786 -1.52598,0.226416 -3.099625,0.233696 -4.60773,-0.120486 -1.446534,-0.334987 -2.824218,-1.048656 -3.851685,-2.132398 -1.51009,-1.630581 -1.863617,-4.280683 -0.677259,-6.189316 0.619659,-1.016216 1.528625,-1.890097 2.658712,-2.30519 1.234023,-0.460108 2.639512,-0.455473 3.866915,0.0245 0.201916,-0.468052 0.421713,-0.928161 0.619659,-1.397544 -2.024484,-0.827535 -4.442878,-0.613039 -6.281336,0.575969 -1.006286,0.650774 -1.834486,1.561066 -2.43693,2.594492 -0.6713,1.188342 -0.888447,2.606412 -0.683215,3.94967 0.270767,1.811312 1.260503,3.506773 2.711673,4.625601 0.70572,0.557428 1.539879,0.932801 2.39853,1.186358 1.109563,0.329691 2.267455,0.473352 3.422698,0.499832 0.163521,0.0025 0.327702,0.0092 0.490563,0.0298 -0.232371,0.12049 -0.501819,0.08408 -0.75405,0.09136 -1.372389,0.02845 -2.755368,-0.184706 -4.042356,-0.665339 -0.979142,-0.368752 -1.903338,-0.918901 -2.629582,-1.678906 -0.761996,-0.7567 -1.40284,-1.652426 -1.774237,-2.665332 -0.436278,-1.198938 -0.572659,-2.517037 -0.338962,-3.774234 0.283347,-1.495525 1.137367,-2.840105 2.255534,-3.855661 1.341274,-1.225417 3.157221,-1.921207 4.975153,-1.891417 5e-4,-0.513733 -5.01e-4,-1.028131 0.0015,-1.541865 -1.569009,5e-4 -3.138681,0.410453 -4.495179,1.202243 -1.792777,1.042696 -3.201576,2.718293 -3.949005,4.650095 -0.548824,1.447199 -0.754055,3.059905 -0.381332,4.576615 0.426347,1.852356 1.602774,3.500812 3.178405,4.554764 0.245612,0.180071 0.526313,0.305192 0.767295,0.492549 -0.111226,-0.0073 -0.224432,-0.02049 -0.324398,-0.07349 -0.507778,-0.242967 -0.982451,-0.549484 -1.433294,-0.885795 -0.81165,-0.6137 -1.576955,-1.308169 -2.157554,-2.14961 -0.726244,-1.008271 -1.298904,-2.137034 -1.615355,-3.342592 -0.300562,-1.114857 -0.368748,-2.281349 -0.289302,-3.429972 0.191321,-2.462751 1.351199,-4.830171 3.168471,-6.501792 1.478314,-1.374378 3.379661,-2.28599 5.380314,-2.564706 0.519694,-0.08342 1.047997,-0.07547 1.570336,-0.134391 z"
     id="path1"
     style="stroke-width:0.066203;fill:#0fb8a4;fill-opacity:1" /></svg>
