<?xml version="1.0" encoding="UTF-8" standalone="no"?>
<svg
   width="16"
   height="16"
   version="1.1"
   viewBox="0 0 16 16"
   id="svg1"
   sodipodi:docname="com.rtosta.zapzap-symbolic.svg"
   xml:space="preserve"
   inkscape:version="1.4.2 (ebf0e940d0, 2025-05-08)"
   xmlns:inkscape="http://www.inkscape.org/namespaces/inkscape"
   xmlns:sodipodi="http://sodipodi.sourceforge.net/DTD/sodipodi-0.dtd"
   xmlns:xlink="http://www.w3.org/1999/xlink"
   xmlns="http://www.w3.org/2000/svg"
   xmlns:svg="http://www.w3.org/2000/svg"><sodipodi:namedview
     id="namedview1"
     pagecolor="#505050"
     bordercolor="#eeeeee"
     borderopacity="1"
     inkscape:showpageshadow="0"
     inkscape:pageopacity="0"
     inkscape:pagecheckerboard="0"
     inkscape:deskcolor="#505050"
     inkscape:zoom="18.399076"
     inkscape:cx="6.956871"
     inkscape:cy="14.593124"
     inkscape:window-width="1536"
     inkscape:window-height="792"
     inkscape:window-x="0"
     inkscape:window-y="0"
     inkscape:window-maximized="1"
     inkscape:current-layer="svg1" /><defs
     id="defs1"><style
       id="current-color-scheme"
       type="text/css">.ColorScheme-Text { color:#404040; } .ColorScheme-Highlight { color:#5294e2; }</style><linearGradient
       id="linearGradient3062"
       x1="8.3581467"
       y1="52.194504"
       x2="59.375187"
       y2="52.027035"
       gradientUnits="userSpaceOnUse"
       gradientTransform="matrix(0.31935347,0,0,0.3008268,16.750762,5.7701736)"
       xlink:href="#linearGradient3060" /><linearGradient
       id="linearGradient3060"><stop
         style="stop-color:#c0bfbc;stop-opacity:0.96470588;"
         offset="0"
         id="stop3056" /><stop
         style="stop-color:#f6f5f4;stop-opacity:0.96470588;"
         offset="0.1216"
         id="stop10456" /><stop
         style="stop-color:#c0bfbc;stop-opacity:0.96470588;"
         offset="0.2415"
         id="stop10458" /><stop
         style="stop-color:#c0bfbc;stop-opacity:0.96470588;"
         offset="0.7285"
         id="stop10462" /><stop
         style="stop-color:#f6f5f4;stop-opacity:0.96470588;"
         offset="0.8621"
         id="stop10460" /><stop
         style="stop-color:#c0bfbc;stop-opacity:0.96470588;"
         offset="1"
         id="stop3058" /></linearGradient><linearGradient
       id="linearGradient15564"
       x1="33.867146"
       y1="51.861328"
       x2="33.867188"
       y2="12.729865"
       gradientUnits="userSpaceOnUse"
       gradientTransform="matrix(0.35300266,0,0,0.33489153,15.575754,4.3362539)"
       xlink:href="#linearGradient15562" /><linearGradient
       id="linearGradient15562"><stop
         style="stop-color:#209232;stop-opacity:1;"
         offset="0"
         id="stop15558" /><stop
         style="stop-color:#34c640;stop-opacity:1;"
         offset="1"
         id="stop15560" /></linearGradient></defs><g
     id="g2"
     transform="matrix(0.7923099,0,0,0.7923099,-13.841137,-4.0363015)"><path
       style="fill:none;fill-opacity:1;stroke:#363636;stroke-width:0.860584;stroke-dasharray:none;stroke-opacity:1"
       d="m 27.531362,9.5131646 c 3.271657,1.22e-4 5.928168,2.5085144 5.943409,5.6122864 l -5.819028,2.569986 5.044166,0.240359 c -1.055785,1.764578 -3.029789,2.855361 -5.168547,2.855727 -3.282692,0 -5.943409,-2.524862 -5.943409,-5.639179 4.9e-4,-0.123995 0.0042,-0.247834 0.01345,-0.371463 l 6.207299,-2.741432 -5.054251,-0.240358 c 1.120216,-1.437035 2.893031,-2.2853167 4.776911,-2.2859264 z"
       id="path2" /><path
       style="fill:none;fill-opacity:1;stroke:#363636;stroke-width:1;stroke-dasharray:none;stroke-opacity:1"
       d="m 27.566406,7.5175781 c -4.498989,0 -8.146413,3.4358019 -8.146484,7.6738279 0.0012,1.308923 0.357035,2.595825 1.035156,3.738282 l -0.607422,2.339843 -0.08203,0.316407 c -0.162712,0.625205 0.461755,1.236253 1.125,1.099609 L 23.9375,22.056641 c 1.127298,0.52986 2.369073,0.80753 3.628906,0.808593 4.49906,0 8.146556,-3.435802 8.146485,-7.673828 0,-4.238026 -3.647496,-7.6738279 -8.146485,-7.6738279 z"
       id="path1677" /></g></svg>
