<?xml version="1.0" encoding="UTF-8" standalone="no"?>
<svg
   width="64"
   height="64"
   version="1.1"
   viewBox="0 0 64 64"
   id="svg6"
   sodipodi:docname="folder-activities.svg"
   xml:space="preserve"
   inkscape:version="1.4.3 (0d15f75042, 2025-12-25)"
   inkscape:export-filename="symbolic/folder-activities.svg"
   inkscape:export-xdpi="96"
   inkscape:export-ydpi="96"
   xmlns:inkscape="http://www.inkscape.org/namespaces/inkscape"
   xmlns:sodipodi="http://sodipodi.sourceforge.net/DTD/sodipodi-0.dtd"
   xmlns="http://www.w3.org/2000/svg"
   xmlns:svg="http://www.w3.org/2000/svg"><sodipodi:namedview
     id="namedview6"
     pagecolor="#505050"
     bordercolor="#eeeeee"
     borderopacity="1"
     inkscape:showpageshadow="0"
     inkscape:pageopacity="0"
     inkscape:pagecheckerboard="0"
     inkscape:deskcolor="#505050"
     inkscape:zoom="7.9860634"
     inkscape:cx="22.038393"
     inkscape:cy="35.812388"
     inkscape:window-width="1536"
     inkscape:window-height="807"
     inkscape:window-x="0"
     inkscape:window-y="0"
     inkscape:window-maximized="1"
     inkscape:current-layer="svg6" /><defs
     id="defs2"><inkscape:path-effect
       effect="fillet_chamfer"
       id="path-effect10"
       is_visible="true"
       lpeversion="1"
       nodesatellites_param="F,0,0,1,0,0,0,1 @ F,0,0,1,0,2.5639,0,1 @ F,0,0,1,0,0,0,1 @ F,0,0,1,0,0,0,1"
       radius="0"
       unit="px"
       method="auto"
       mode="F"
       chamfer_steps="1"
       flexible="false"
       use_knot_distance="true"
       apply_no_radius="true"
       apply_with_radius="true"
       only_selected="false"
       hide_knots="false" /><inkscape:path-effect
       effect="fillet_chamfer"
       id="path-effect9"
       is_visible="true"
       lpeversion="1"
       nodesatellites_param="F,0,0,1,0,2.5639,0,1 @ F,0,0,1,0,0,0,1 @ F,0,0,1,0,2.5639,0,1 @ F,0,0,1,0,2.563912,0,1"
       radius="0"
       unit="px"
       method="auto"
       mode="F"
       chamfer_steps="1"
       flexible="false"
       use_knot_distance="true"
       apply_no_radius="true"
       apply_with_radius="true"
       only_selected="false"
       hide_knots="false" /><inkscape:path-effect
       effect="fillet_chamfer"
       id="path-effect7"
       is_visible="true"
       lpeversion="1"
       nodesatellites_param="F,0,0,1,0,2.5639,0,1 @ F,0,0,1,0,0,0,1 @ F,0,0,1,0,2.5639,0,1 @ F,0,0,1,0,2.563912,0,1"
       radius="0"
       unit="px"
       method="auto"
       mode="F"
       chamfer_steps="1"
       flexible="false"
       use_knot_distance="true"
       apply_no_radius="true"
       apply_with_radius="true"
       only_selected="false"
       hide_knots="false" /><style
       id="current-color-scheme"
       type="text/css">.ColorScheme-Text {
      color:#333333;
    }
    .ColorScheme-Highlight {
      color:#60c0f0;
    }</style><linearGradient
       id="linearGradient946"
       x1="445.28"
       x2="445.28"
       y1="181.8"
       y2="200.07"
       gradientTransform="matrix(1.4724 0 0 1.4432 -625.58 -239.75)"
       gradientUnits="userSpaceOnUse"><stop
         stop-color="#ffffff"
         stop-opacity="0"
         offset="0"
         id="stop1" /><stop
         stop-color="#ffffff"
         offset="1"
         id="stop2" /></linearGradient><filter
       style="color-interpolation-filters:sRGB;"
       inkscape:label="Drop Shadow"
       id="filter94"
       x="-0.093567251"
       y="-0.059094396"
       width="1.1871345"
       height="1.1181888"><feFlood
         result="flood"
         in="SourceGraphic"
         flood-opacity="0.196078"
         flood-color="rgb(0,0,0)"
         id="feFlood93" /><feGaussianBlur
         result="blur"
         in="SourceGraphic"
         stdDeviation="1.000000"
         id="feGaussianBlur93" /><feOffset
         result="offset"
         in="blur"
         dx="0.000000"
         dy="0.000000"
         id="feOffset93" /><feComposite
         result="comp1"
         operator="in"
         in="flood"
         in2="offset"
         id="feComposite93" /><feComposite
         result="comp2"
         operator="over"
         in="SourceGraphic"
         in2="comp1"
         id="feComposite94" /></filter><filter
       style="color-interpolation-filters:sRGB;"
       inkscape:label="Drop Shadow"
       id="filter96"
       x="-0.052710783"
       y="-0.067002503"
       width="1.1054216"
       height="1.134005"><feFlood
         result="flood"
         in="SourceGraphic"
         flood-opacity="0.196078"
         flood-color="rgb(0,0,0)"
         id="feFlood94" /><feGaussianBlur
         result="blur"
         in="SourceGraphic"
         stdDeviation="1.000000"
         id="feGaussianBlur94" /><feOffset
         result="offset"
         in="blur"
         dx="0.000000"
         dy="0.000000"
         id="feOffset94" /><feComposite
         result="comp1"
         operator="in"
         in="flood"
         in2="offset"
         id="feComposite95" /><feComposite
         result="comp2"
         operator="over"
         in="SourceGraphic"
         in2="comp1"
         id="feComposite96" /></filter><filter
       style="color-interpolation-filters:sRGB"
       inkscape:label="Drop Shadow"
       id="filter94-3"
       x="-0.093567251"
       y="-0.059094396"
       width="1.1871345"
       height="1.1181888"><feFlood
         result="flood"
         in="SourceGraphic"
         flood-opacity="0.196078"
         flood-color="rgb(0,0,0)"
         id="feFlood93-6" /><feGaussianBlur
         result="blur"
         in="SourceGraphic"
         stdDeviation="1.000000"
         id="feGaussianBlur93-7" /><feOffset
         result="offset"
         in="blur"
         dx="0.000000"
         dy="0.000000"
         id="feOffset93-5" /><feComposite
         result="comp1"
         operator="in"
         in="flood"
         in2="offset"
         id="feComposite93-3" /><feComposite
         result="comp2"
         operator="over"
         in="SourceGraphic"
         in2="comp1"
         id="feComposite94-5" /></filter><filter
       style="color-interpolation-filters:sRGB"
       inkscape:label="Drop Shadow"
       id="filter3"
       x="-0.04276453"
       y="-0.054359614"
       width="1.0855291"
       height="1.1087192"><feFlood
         result="flood"
         in="SourceGraphic"
         flood-opacity="0.196078"
         flood-color="rgb(0,0,0)"
         id="feFlood2" /><feGaussianBlur
         result="blur"
         in="SourceGraphic"
         stdDeviation="1.000000"
         id="feGaussianBlur2" /><feOffset
         result="offset"
         in="blur"
         dx="0.000000"
         dy="0.000000"
         id="feOffset2" /><feComposite
         result="comp1"
         operator="in"
         in="flood"
         in2="offset"
         id="feComposite2" /><feComposite
         result="comp2"
         operator="over"
         in="SourceGraphic"
         in2="comp1"
         id="feComposite3" /></filter></defs><g
     id="g3"
     transform="translate(0.28280195)"><path
       id="path11"
       style="fill:#7fcef7;fill-opacity:1;stroke-width:7.5258;stroke-linecap:round;stroke-linejoin:round;filter:url(#filter94-3)"
       d="m 189.564,-14.728516 a 2.5742207,3.3529383 0 0 0 -2.57572,3.353706 v 33.905575 a 2.574233,3.3529541 0 0 0 2.57572,3.353706 h 23.07428 V -8.2960301 h -0.0254 v -1.1464995 l -5.31718,-5.2859864 z"
       transform="matrix(1.2325781,0,0,1.2325781,-226.53821,25.124705)" /><path
       id="path49"
       style="fill:#bde6fb;fill-opacity:1;stroke-width:11.2865;stroke-linecap:round;stroke-linejoin:round;filter:url(#filter3)"
       d="m 34.994352,12.850748 -5.871085,5.871094 H 7.0920169 a 3.160207,3.160207 0 0 0 -3.160158,3.154297 3.160207,3.160207 0 0 0 0,0.0059 v 31.958985 a 3.1602218,3.1602218 0 0 0 0,0.0078 3.1602218,3.1602218 0 0 0 3.160158,3.152344 H 56.892792 a 3.160207,3.160207 0 0 0 3.16016,-3.154297 3.160207,3.160207 0 0 0 0,-0.0059 V 18.721842 15.954264 a 3.160207,3.1016136 0 0 0 0,-0.06641 3.160207,3.1016136 0 0 0 -3.16016,-3.03711 z" /></g><path
     d="M 39.5,32 A 1.5,1.5 0 0 0 38,33.5 1.5,1.5 0 0 0 39.5,35 1.5,1.5 0 0 0 41,33.5 1.5,1.5 0 0 0 39.5,32 Z m 8.5,0 -2.9,2.8 4.4,4.4 -4.5,5.2 3,2.6 7,-8 z M 37.5,39 A 2.5,2.5 0 0 0 35,41.5 2.5,2.5 0 0 0 37.5,44 2.5,2.5 0 0 0 40,41.5 2.5,2.5 0 0 0 37.5,39 Z m 4.5,7 a 3,3 0 0 0 -3,3 3,3 0 0 0 3,3 3,3 0 0 0 3,-3 3,3 0 0 0 -3,-3 z"
     opacity="0.15"
     id="path7"
     style="fill:#0e9ce4;fill-opacity:1;opacity:1" /></svg>
