<?xml version="1.0" encoding="UTF-8" standalone="no"?>
<svg
   viewBox="0 0 32 32"
   version="1.1"
   id="svg1"
   sodipodi:docname="dialog-cancel.svg"
   width="32"
   height="32"
   inkscape:version="1.4.2 (ebf0e940d0, 2025-05-08)"
   xmlns:inkscape="http://www.inkscape.org/namespaces/inkscape"
   xmlns:sodipodi="http://sodipodi.sourceforge.net/DTD/sodipodi-0.dtd"
   xmlns="http://www.w3.org/2000/svg"
   xmlns:svg="http://www.w3.org/2000/svg">
  <sodipodi:namedview
     id="namedview1"
     pagecolor="#505050"
     bordercolor="#eeeeee"
     borderopacity="1"
     inkscape:showpageshadow="0"
     inkscape:pageopacity="0"
     inkscape:pagecheckerboard="0"
     inkscape:deskcolor="#505050"
     inkscape:zoom="24.541667"
     inkscape:cx="11.979626"
     inkscape:cy="12"
     inkscape:window-width="1536"
     inkscape:window-height="792"
     inkscape:window-x="0"
     inkscape:window-y="0"
     inkscape:window-maximized="1"
     inkscape:current-layer="svg1" />
  <defs
     id="defs3051">
    <style
       type="text/css"
       id="current-color-scheme">
      .ColorScheme-Text {
        color:#363636;
      }
      </style>
  </defs>
  <path
     style="fill:currentColor;fill-opacity:1;stroke:none;stroke-width:1.5"
     d="M 16,4 C 12.958603,4 10.19302,5.135041 8.078125,7 7.8887665,7.16698 7.69408,7.33717 7.515625,7.515625 L 7,8.078125 C 5.135041,10.19302 4,12.958603 4,16 c 0,6.62742 5.37258,12 12,12 3.041397,0 5.80698,-1.135041 7.921875,-3 l 0.5625,-0.515625 C 24.66283,24.30592 24.83302,24.111234 25,23.921875 26.864959,21.80698 28,19.041397 28,16 28,9.37258 22.62742,4 16,4 Z m 0,1.5 c 5.798985,0 10.5,4.701015 10.5,10.5 0,2.63049 -0.979822,5.001402 -2.578125,6.84375 L 9.15625,8.078125 C 10.998596,6.4798225 13.36951,5.5 16,5.5 Z M 8.078125,9.15625 22.84375,23.921875 C 21.001402,25.520178 18.63049,26.5 16,26.5 10.201015,26.5 5.5,21.798985 5.5,16 5.5,13.36951 6.4798225,10.998596 8.078125,9.15625 Z"
     class="ColorScheme-Text"
     id="path1" />
</svg>
