<?xml version="1.0" encoding="UTF-8" standalone="no"?>
<svg
   version="1.1"
   viewBox="0 0 32 32"
   id="svg4"
   sodipodi:docname="system-save-session.svg"
   xml:space="preserve"
   inkscape:version="1.4.2 (ebf0e940d0, 2025-05-08)"
   xmlns:inkscape="http://www.inkscape.org/namespaces/inkscape"
   xmlns:sodipodi="http://sodipodi.sourceforge.net/DTD/sodipodi-0.dtd"
   xmlns="http://www.w3.org/2000/svg"
   xmlns:svg="http://www.w3.org/2000/svg"><sodipodi:namedview
     id="namedview4"
     pagecolor="#505050"
     bordercolor="#eeeeee"
     borderopacity="1"
     inkscape:showpageshadow="0"
     inkscape:pageopacity="0"
     inkscape:pagecheckerboard="0"
     inkscape:deskcolor="#505050"
     inkscape:zoom="18.40625"
     inkscape:cx="15.972835"
     inkscape:cy="16"
     inkscape:window-width="1536"
     inkscape:window-height="792"
     inkscape:window-x="0"
     inkscape:window-y="0"
     inkscape:window-maximized="1"
     inkscape:current-layer="svg4" /><defs
     id="defs1"><style
       id="current-color-scheme"
       type="text/css">.ColorScheme-Text {
        color:#363636;
      }</style><style
       id="current-color-scheme-6"
       type="text/css">.ColorScheme-Text {
        color:#363636;
      }</style></defs><g
     id="g1"
     transform="matrix(1.2,0,0,1.2,-3.2,-3.2)"><path
       d="M 16,6 A 10,10 0 0 0 6,16 10,10 0 0 0 16,26 10,10 0 0 0 26,16 10,10 0 0 0 16,6 Z m 0,1 a 9,9 0 0 1 9,9 9,9 0 0 1 -9,9 9,9 0 0 1 -9,-9 9,9 0 0 1 9,-9 z"
       fill="#ffffff"
       fill-rule="evenodd"
       stroke-linecap="round"
       stroke-linejoin="round"
       id="path2"
       style="fill:#363636;fill-opacity:1" /><g
       transform="translate(0,2.5)"
       fill="#ffffff"
       fill-rule="evenodd"
       stroke-linecap="round"
       stroke-linejoin="round"
       id="g4"
       style="fill:#363636;fill-opacity:1"><rect
         x="15.5"
         y="9"
         width="1"
         height="9"
         rx="0.5"
         ry="0.5"
         stroke-width="0.90453"
         id="rect2"
         style="fill:#363636;fill-opacity:1" /><rect
         transform="rotate(-45)"
         x="-1.5607001"
         y="17.187"
         width="1"
         height="7"
         rx="0.5"
         ry="0.5"
         stroke-width="0.79772"
         id="rect3"
         style="fill:#363636;fill-opacity:1" /><rect
         transform="matrix(-0.70711,-0.70711,-0.70711,0.70711,0,0)"
         x="-24.188"
         y="-5.4400001"
         width="1"
         height="7"
         rx="0.5"
         ry="0.5"
         stroke-width="0.79772"
         id="rect4"
         style="fill:#363636;fill-opacity:1" /></g></g></svg>
