<?xml version="1.0" encoding="UTF-8" standalone="no"?>
<svg
   viewBox="0 0 32 32"
   version="1.1"
   id="svg3"
   sodipodi:docname="system-suspend.svg"
   width="32"
   height="32"
   inkscape:version="1.4.2 (ebf0e940d0, 2025-05-08)"
   xmlns:inkscape="http://www.inkscape.org/namespaces/inkscape"
   xmlns:sodipodi="http://sodipodi.sourceforge.net/DTD/sodipodi-0.dtd"
   xmlns="http://www.w3.org/2000/svg"
   xmlns:svg="http://www.w3.org/2000/svg">
  <defs
     id="defs3" />
  <sodipodi:namedview
     id="namedview3"
     pagecolor="#505050"
     bordercolor="#eeeeee"
     borderopacity="1"
     inkscape:showpageshadow="0"
     inkscape:pageopacity="0"
     inkscape:pagecheckerboard="0"
     inkscape:deskcolor="#505050"
     inkscape:zoom="24.541667"
     inkscape:cx="11.979626"
     inkscape:cy="12"
     inkscape:window-width="1536"
     inkscape:window-height="792"
     inkscape:window-x="0"
     inkscape:window-y="0"
     inkscape:window-maximized="1"
     inkscape:current-layer="svg3" />
  <style
     type="text/css"
     id="current-color-scheme">
        .ColorScheme-Text {
            color:#363636;
        }
    </style>
  <g
     transform="matrix(1.5,0,0,1.5,-0.5,-0.5)"
     id="g3">
    <g
       class="ColorScheme-Text"
       fill="currentColor"
       id="g2">
      <path
         d="M 7.047,4.049 A 7.995,8 0 0 0 3,11 a 7.995,8 0 0 0 7.994,8 7.995,8 0 0 0 6.938,-4.043 7.995,8 0 0 0 0.01,-0.006 L 17.203,14.213 A 6.996,7 0 0 1 17.199,14.219 6.996,7 0 0 1 13.992,15 6.996,7 0 0 1 6.998,8 6.996,7 0 0 1 7.783,4.787 Z M 6.303,5.82 A 7.995,8 0 0 0 5.998,8 7.995,8 0 0 0 13.992,16 7.995,8 0 0 0 16.18,15.687 6.996,7 0 0 1 10.994,18 6.996,7 0 0 1 4,11 6.996,7 0 0 1 6.303,5.82 Z"
         id="path1" />
      <path
         d="m 10,6 v 1 h 2.293 l -2,2 L 10,9.293 V 10 h 4 V 9 h -2.293 l 2,-2 L 14,6.707 V 6 h -0.707 z m 5,-3 v 1 h 2.293 l -2,2 L 15,6.293 V 7 h 4 V 6 h -2.293 l 2,-2 L 19,3.707 V 3 h -0.707 z"
         id="path2" />
    </g>
  </g>
</svg>
