<?xml version="1.0" encoding="UTF-8" standalone="no"?>
<svg
   version="1.1"
   viewBox="0 0 32 32"
   id="svg2"
   sodipodi:docname="system-suspend.svg"
   inkscape:version="1.4.2 (ebf0e940d0, 2025-05-08)"
   xmlns:inkscape="http://www.inkscape.org/namespaces/inkscape"
   xmlns:sodipodi="http://sodipodi.sourceforge.net/DTD/sodipodi-0.dtd"
   xmlns="http://www.w3.org/2000/svg"
   xmlns:svg="http://www.w3.org/2000/svg">
  <defs
     id="defs2" />
  <sodipodi:namedview
     id="namedview2"
     pagecolor="#505050"
     bordercolor="#eeeeee"
     borderopacity="1"
     inkscape:showpageshadow="0"
     inkscape:pageopacity="0"
     inkscape:pagecheckerboard="0"
     inkscape:deskcolor="#505050"
     inkscape:zoom="18.40625"
     inkscape:cx="15.972835"
     inkscape:cy="16"
     inkscape:window-width="1536"
     inkscape:window-height="792"
     inkscape:window-x="0"
     inkscape:window-y="0"
     inkscape:window-maximized="1"
     inkscape:current-layer="svg2" />
  <style
     id="current-color-scheme"
     type="text/css">.ColorScheme-Text {
            color:#363636;
        }</style>
  <path
     d="m16 1c-8.2759 0-15 6.7241-15 15s6.7241 15 15 15 15-6.7241 15-15-6.7241-15-15-15z"
     color="#000000"
     fill="#64728a"
     overflow="visible"
     stroke-width="1.0345"
     id="path1"
     style="fill:none;stroke:#343434;stroke-opacity:0.99215686;stroke-width:1;stroke-dasharray:none" />
  <path
     d="m16 6a10 10 0 0 0-10 10 10 10 0 0 0 10 10 10 10 0 0 0 10-10 10 10 0 0 0-10-10zm0 1a9 9 0 0 1 9 9 9 9 0 0 1-9 9 9 9 0 0 1-9-9 9 9 0 0 1 9-9z"
     fill="#ffffff"
     fill-rule="evenodd"
     stroke-linecap="round"
     stroke-linejoin="round"
     id="path2"
     style="fill:#353535;fill-opacity:0.99215686" />
  <rect
     x="6"
     y="15.5"
     width="20"
     height="1"
     rx=".5"
     ry=".5"
     fill="#ffffff"
     fill-rule="evenodd"
     stroke-linecap="round"
     stroke-linejoin="round"
     id="rect2"
     style="fill:#353535;fill-opacity:1" />
</svg>
