<?xml version="1.0" encoding="UTF-8" standalone="no"?>
<svg
   viewBox="0 0 32 32"
   version="1.1"
   id="svg3"
   sodipodi:docname="system-suspend-hibernate.svg"
   width="32"
   height="32"
   inkscape:version="1.4.2 (ebf0e940d0, 2025-05-08)"
   xmlns:inkscape="http://www.inkscape.org/namespaces/inkscape"
   xmlns:sodipodi="http://sodipodi.sourceforge.net/DTD/sodipodi-0.dtd"
   xmlns="http://www.w3.org/2000/svg"
   xmlns:svg="http://www.w3.org/2000/svg">
  <defs
     id="defs3" />
  <sodipodi:namedview
     id="namedview3"
     pagecolor="#505050"
     bordercolor="#eeeeee"
     borderopacity="1"
     inkscape:showpageshadow="0"
     inkscape:pageopacity="0"
     inkscape:pagecheckerboard="0"
     inkscape:deskcolor="#505050"
     inkscape:zoom="24.541667"
     inkscape:cx="11.979626"
     inkscape:cy="12"
     inkscape:window-width="1536"
     inkscape:window-height="792"
     inkscape:window-x="0"
     inkscape:window-y="0"
     inkscape:window-maximized="1"
     inkscape:current-layer="svg3" />
  <style
     type="text/css"
     id="current-color-scheme">
        .ColorScheme-Text {
            color:#363636;
        }
    </style>
  <g
     transform="matrix(1.3333333,0,0,1.3333333,1.3333337,1.136667)"
     id="g3">
    <g
       class="ColorScheme-Text"
       fill="currentColor"
       id="g2">
      <path
         d="M 6.79,3.707 5.922,4.207 7.568,7.057 5.32,6.455 5.06,7.422 8.275,8.283 9.845,11 H 6.708 L 4.354,8.646 3.646,9.354 5.293,11 H 2 v 1 H 5.293 L 3.646,13.646 4.354,14.354 6.707,12 H 9.84 l -1.567,2.713 -3.214,0.861 0.257,0.967 2.25,-0.604 -1.646,2.853 0.865,0.5 1.647,-2.852 0.603,2.25 L 10,18.428 9.139,15.212 10.994,12 H 11 l 1.857,3.219 -0.86,3.215 0.966,0.257 0.601,-2.248 1.647,2.852 0.867,-0.5 -1.646,-2.852 2.248,0.602 L 16.94,15.58 13.725,14.719 12.155,12 h 3.138 l 2.353,2.354 0.708,-0.708 L 16.707,12 H 20 V 11 H 16.707 L 18.354,9.354 18.303,9.294 H 17 L 15.293,11 H 11 V 10.998 L 10.996,10.996 9.143,7.783 10.003,4.568 9.037,4.308 8.436,6.558 Z M 16,3 v 1 h 2.293 l -2,2 L 16,6.293 V 7 h 4 V 6 h -2.293 l 2,-2 L 20,3.707 V 3 h -0.707 z"
         id="path1" />
      <path
         d="m 11,5 v 1 h 2.293 l -2,2 L 11,8.293 V 9 h 4 V 8 h -2.293 l 2,-2 L 15,5.707 V 5 h -0.707 z"
         id="path2" />
    </g>
  </g>
</svg>
