<?xml version="1.0" encoding="UTF-8" standalone="no"?>
<svg
   viewBox="0 0 32 32"
   version="1.1"
   id="svg1"
   sodipodi:docname="system-log-out.svg"
   width="32"
   height="32"
   inkscape:version="1.4.2 (ebf0e940d0, 2025-05-08)"
   xmlns:inkscape="http://www.inkscape.org/namespaces/inkscape"
   xmlns:sodipodi="http://sodipodi.sourceforge.net/DTD/sodipodi-0.dtd"
   xmlns="http://www.w3.org/2000/svg"
   xmlns:svg="http://www.w3.org/2000/svg">
  <sodipodi:namedview
     id="namedview1"
     pagecolor="#505050"
     bordercolor="#eeeeee"
     borderopacity="1"
     inkscape:showpageshadow="0"
     inkscape:pageopacity="0"
     inkscape:pagecheckerboard="0"
     inkscape:deskcolor="#505050"
     inkscape:zoom="24.541667"
     inkscape:cx="11.979626"
     inkscape:cy="12"
     inkscape:window-width="1536"
     inkscape:window-height="792"
     inkscape:window-x="0"
     inkscape:window-y="0"
     inkscape:window-maximized="1"
     inkscape:current-layer="svg1" />
  <defs
     id="defs3051">
    <style
       type="text/css"
       id="current-color-scheme">
      .ColorScheme-Text {
        color:#363636;
      }
      </style>
  </defs>
  <g
     transform="matrix(1.5,0,0,1.5,-0.5,-0.5)"
     id="g1">
    <path
       style="fill:currentColor;fill-opacity:1;stroke:none"
       d="m 11,3 c -4.432,0 -8,3.568 -8,8 0,4.432 3.568,8 8,8 4.432,0 8,-3.568 8,-8 0,-4.432 -3.568,-8 -8,-8 z m 0,1 c 3.878,0 7,3.122 7,7 0,3.878 -3.122,7 -7,7 C 7.122,18 4,14.878 4,11 4,7.122 7.122,4 11,4 Z M 12.292969,7 9,10.292969 8.2929688,11 9,11.707031 12.292969,15 13,14.292969 9.7070312,11 13,7.7070312 Z"
       class="ColorScheme-Text"
       id="path1" />
  </g>
</svg>
